<?xml version="1.0" encoding="UTF-8" standalone="no"?>
<!DOCTYPE svg PUBLIC "-//W3C//DTD SVG 1.1//EN"
 "http://www.w3.org/Graphics/SVG/1.1/DTD/svg11.dtd">
<!-- Generated by graphviz version 2.43.0 (0)
 -->
<!-- Title: %3 Pages: 1 -->
<svg width="1583pt" height="238pt"
 viewBox="0.00 0.00 1582.50 237.74" xmlns="http://www.w3.org/2000/svg" xmlns:xlink="http://www.w3.org/1999/xlink">
<g id="graph0" class="graph" transform="scale(1 1) rotate(0) translate(36 201.74)">
<title>%3</title>
<polygon fill="dimgray" stroke="transparent" points="-36,36 -36,-201.74 1546.5,-201.74 1546.5,36 -36,36"/>
<text text-anchor="middle" x="755.25" y="-150.54" font-family="Helvetica,sans-Serif" font-size="14.00">Sweep&#39;s Plan &amp; Progress</text>
<!-- start -->
<g id="node1" class="node">
<title>start</title>
</g>
<!-- f40aaf16&#45;be5c&#45;4922&#45;8bab&#45;8d76e162a853 -->
<g id="node3" class="node">
<title>f40aaf16&#45;be5c&#45;4922&#45;8bab&#45;8d76e162a853</title>
<ellipse fill="#0ee832" stroke="black" cx="181.5" cy="-99.87" rx="89.61" ry="26.74"/>
<text text-anchor="middle" x="181.5" y="-103.67" font-family="Helvetica,sans-Serif" font-size="14.00">✓ Create</text>
<text text-anchor="middle" x="181.5" y="-88.67" font-family="Helvetica,sans-Serif" font-size="14.00">pytrait/types.py</text>
</g>
<!-- start&#45;&gt;f40aaf16&#45;be5c&#45;4922&#45;8bab&#45;8d76e162a853 -->
<g id="edge10" class="edge">
<title>start&#45;&gt;f40aaf16&#45;be5c&#45;4922&#45;8bab&#45;8d76e162a853</title>
<path fill="none" stroke="black" d="M40.41,-99.87C44.38,-99.87 61,-99.87 81.51,-99.87"/>
<polygon fill="black" stroke="black" points="81.51,-103.37 91.51,-99.87 81.51,-96.37 81.51,-103.37"/>
<text text-anchor="middle" x="65.85" y="-106.67" font-family="Helvetica,sans-Serif" font-size="14.00">Start</text>
</g>
<!-- end -->
<g id="node2" class="node">
<title>end</title>
</g>
<!-- d9738909&#45;ff60&#45;4ba6&#45;b9d3&#45;354d93e2a38b -->
<g id="node4" class="node">
<title>d9738909&#45;ff60&#45;4ba6&#45;b9d3&#45;354d93e2a38b</title>
<ellipse fill="yellow" stroke="black" cx="437.5" cy="-99.87" rx="88.28" ry="26.74"/>
<text text-anchor="middle" x="437.5" y="-103.67" font-family="Helvetica,sans-Serif" font-size="14.00">⋯ Create</text>
<text text-anchor="middle" x="437.5" y="-88.67" font-family="Helvetica,sans-Serif" font-size="14.00">pytrait/traits.py</text>
</g>
<!-- f40aaf16&#45;be5c&#45;4922&#45;8bab&#45;8d76e162a853&#45;&gt;d9738909&#45;ff60&#45;4ba6&#45;b9d3&#45;354d93e2a38b -->
<g id="edge2" class="edge">
<title>f40aaf16&#45;be5c&#45;4922&#45;8bab&#45;8d76e162a853&#45;&gt;d9738909&#45;ff60&#45;4ba6&#45;b9d3&#45;354d93e2a38b</title>
<path fill="none" stroke="black" d="M271.5,-99.87C293.9,-99.87 316.3,-99.87 338.7,-99.87"/>
<polygon fill="black" stroke="black" points="338.99,-103.37 348.99,-99.87 338.99,-96.37 338.99,-103.37"/>
</g>
<!-- 5dd3fc3a&#45;1769&#45;43b1&#45;adbf&#45;07947e00b1e2 -->
<g id="node8" class="node">
<title>5dd3fc3a&#45;1769&#45;43b1&#45;adbf&#45;07947e00b1e2</title>
<polygon fill="#0ee832" stroke="black" points="281,-36 0,-36 0,0 281,0 281,-36"/>
<text text-anchor="middle" x="140.5" y="-14.3" font-family="Helvetica,sans-Serif" font-size="14.00">✓ Ran sandbox for `pytrait/types.py`.</text>
</g>
<!-- f40aaf16&#45;be5c&#45;4922&#45;8bab&#45;8d76e162a853&#45;&gt;5dd3fc3a&#45;1769&#45;43b1&#45;adbf&#45;07947e00b1e2 -->
<g id="edge1" class="edge">
<title>f40aaf16&#45;be5c&#45;4922&#45;8bab&#45;8d76e162a853&#45;&gt;5dd3fc3a&#45;1769&#45;43b1&#45;adbf&#45;07947e00b1e2</title>
<path fill="none" stroke="black" stroke-dasharray="5,2" d="M168.3,-73.16C163.76,-64.32 158.68,-54.41 154.11,-45.5"/>
<polygon fill="black" stroke="black" points="157.08,-43.63 149.4,-36.34 150.85,-46.83 157.08,-43.63"/>
</g>
<!-- 13dd2a6e&#45;7126&#45;4787&#45;bab5&#45;b7b7c1a77dc6 -->
<g id="node5" class="node">
<title>13dd2a6e&#45;7126&#45;4787&#45;bab5&#45;b7b7c1a77dc6</title>
<ellipse fill="white" stroke="black" cx="735.5" cy="-99.87" rx="91.85" ry="26.74"/>
<text text-anchor="middle" x="735.5" y="-103.67" font-family="Helvetica,sans-Serif" font-size="14.00">▶ Create</text>
<text text-anchor="middle" x="735.5" y="-88.67" font-family="Helvetica,sans-Serif" font-size="14.00">pytrait/hooks.py</text>
</g>
<!-- d9738909&#45;ff60&#45;4ba6&#45;b9d3&#45;354d93e2a38b&#45;&gt;13dd2a6e&#45;7126&#45;4787&#45;bab5&#45;b7b7c1a77dc6 -->
<g id="edge4" class="edge">
<title>d9738909&#45;ff60&#45;4ba6&#45;b9d3&#45;354d93e2a38b&#45;&gt;13dd2a6e&#45;7126&#45;4787&#45;bab5&#45;b7b7c1a77dc6</title>
<path fill="none" stroke="black" d="M525.97,-99.87C561.75,-99.87 597.54,-99.87 633.33,-99.87"/>
<polygon fill="black" stroke="black" points="633.42,-103.37 643.42,-99.87 633.42,-96.37 633.42,-103.37"/>
</g>
<!-- 9622d26d&#45;c15f&#45;4abb&#45;ab05&#45;e807a3e9453b -->
<g id="node9" class="node">
<title>9622d26d&#45;c15f&#45;4abb&#45;ab05&#45;e807a3e9453b</title>
<polygon fill="white" stroke="black" points="576,-36 299,-36 299,0 576,0 576,-36"/>
<text text-anchor="middle" x="437.5" y="-14.3" font-family="Helvetica,sans-Serif" font-size="14.00">▶ Ran sandbox for `pytrait/traits.py`.</text>
</g>
<!-- d9738909&#45;ff60&#45;4ba6&#45;b9d3&#45;354d93e2a38b&#45;&gt;9622d26d&#45;c15f&#45;4abb&#45;ab05&#45;e807a3e9453b -->
<g id="edge3" class="edge">
<title>d9738909&#45;ff60&#45;4ba6&#45;b9d3&#45;354d93e2a38b&#45;&gt;9622d26d&#45;c15f&#45;4abb&#45;ab05&#45;e807a3e9453b</title>
<path fill="none" stroke="black" stroke-dasharray="5,2" d="M437.5,-72.72C437.5,-64.27 437.5,-54.89 437.5,-46.36"/>
<polygon fill="black" stroke="black" points="441,-46.15 437.5,-36.15 434,-46.15 441,-46.15"/>
</g>
<!-- c019e604&#45;7899&#45;459e&#45;a7cf&#45;8889144cc941 -->
<g id="node6" class="node">
<title>c019e604&#45;7899&#45;459e&#45;a7cf&#45;8889144cc941</title>
<ellipse fill="white" stroke="black" cx="1048.5" cy="-99.87" rx="109.7" ry="26.74"/>
<text text-anchor="middle" x="1048.5" y="-103.67" font-family="Helvetica,sans-Serif" font-size="14.00">▶ Create</text>
<text text-anchor="middle" x="1048.5" y="-88.67" font-family="Helvetica,sans-Serif" font-size="14.00">pytrait/examples.py</text>
</g>
<!-- 13dd2a6e&#45;7126&#45;4787&#45;bab5&#45;b7b7c1a77dc6&#45;&gt;c019e604&#45;7899&#45;459e&#45;a7cf&#45;8889144cc941 -->
<g id="edge6" class="edge">
<title>13dd2a6e&#45;7126&#45;4787&#45;bab5&#45;b7b7c1a77dc6&#45;&gt;c019e604&#45;7899&#45;459e&#45;a7cf&#45;8889144cc941</title>
<path fill="none" stroke="black" d="M827.5,-99.87C861.29,-99.87 895.08,-99.87 928.86,-99.87"/>
<polygon fill="black" stroke="black" points="928.87,-103.37 938.87,-99.87 928.87,-96.37 928.87,-103.37"/>
</g>
<!-- 89ebeb96&#45;70cb&#45;470c&#45;8e4f&#45;a92154280710 -->
<g id="node10" class="node">
<title>89ebeb96&#45;70cb&#45;470c&#45;8e4f&#45;a92154280710</title>
<polygon fill="white" stroke="black" points="876.5,-36 594.5,-36 594.5,0 876.5,0 876.5,-36"/>
<text text-anchor="middle" x="735.5" y="-14.3" font-family="Helvetica,sans-Serif" font-size="14.00">▶ Ran sandbox for `pytrait/hooks.py`.</text>
</g>
<!-- 13dd2a6e&#45;7126&#45;4787&#45;bab5&#45;b7b7c1a77dc6&#45;&gt;89ebeb96&#45;70cb&#45;470c&#45;8e4f&#45;a92154280710 -->
<g id="edge5" class="edge">
<title>13dd2a6e&#45;7126&#45;4787&#45;bab5&#45;b7b7c1a77dc6&#45;&gt;89ebeb96&#45;70cb&#45;470c&#45;8e4f&#45;a92154280710</title>
<path fill="none" stroke="black" stroke-dasharray="5,2" d="M735.5,-72.72C735.5,-64.27 735.5,-54.89 735.5,-46.36"/>
<polygon fill="black" stroke="black" points="739,-46.15 735.5,-36.15 732,-46.15 739,-46.15"/>
</g>
<!-- 14eb70f9&#45;7704&#45;48e3&#45;8a29&#45;874184772669 -->
<g id="node7" class="node">
<title>14eb70f9&#45;7704&#45;48e3&#45;8a29&#45;874184772669</title>
<ellipse fill="white" stroke="black" cx="1328.5" cy="-99.87" rx="96.75" ry="26.74"/>
<text text-anchor="middle" x="1328.5" y="-103.67" font-family="Helvetica,sans-Serif" font-size="14.00">▶ Modify</text>
<text text-anchor="middle" x="1328.5" y="-88.67" font-family="Helvetica,sans-Serif" font-size="14.00">pytrait/__init__.py</text>
</g>
<!-- c019e604&#45;7899&#45;459e&#45;a7cf&#45;8889144cc941&#45;&gt;14eb70f9&#45;7704&#45;48e3&#45;8a29&#45;874184772669 -->
<g id="edge8" class="edge">
<title>c019e604&#45;7899&#45;459e&#45;a7cf&#45;8889144cc941&#45;&gt;14eb70f9&#45;7704&#45;48e3&#45;8a29&#45;874184772669</title>
<path fill="none" stroke="black" d="M1158.15,-99.87C1179.21,-99.87 1200.28,-99.87 1221.34,-99.87"/>
<polygon fill="black" stroke="black" points="1221.35,-103.37 1231.35,-99.87 1221.35,-96.37 1221.35,-103.37"/>
</g>
<!-- 1f3d842e&#45;a06a&#45;4f56&#45;9aba&#45;0d565f9a94f6 -->
<g id="node11" class="node">
<title>1f3d842e&#45;a06a&#45;4f56&#45;9aba&#45;0d565f9a94f6</title>
<polygon fill="white" stroke="black" points="1202.5,-36 894.5,-36 894.5,0 1202.5,0 1202.5,-36"/>
<text text-anchor="middle" x="1048.5" y="-14.3" font-family="Helvetica,sans-Serif" font-size="14.00">▶ Ran sandbox for `pytrait/examples.py`.</text>
</g>
<!-- c019e604&#45;7899&#45;459e&#45;a7cf&#45;8889144cc941&#45;&gt;1f3d842e&#45;a06a&#45;4f56&#45;9aba&#45;0d565f9a94f6 -->
<g id="edge7" class="edge">
<title>c019e604&#45;7899&#45;459e&#45;a7cf&#45;8889144cc941&#45;&gt;1f3d842e&#45;a06a&#45;4f56&#45;9aba&#45;0d565f9a94f6</title>
<path fill="none" stroke="black" stroke-dasharray="5,2" d="M1048.5,-72.72C1048.5,-64.27 1048.5,-54.89 1048.5,-46.36"/>
<polygon fill="black" stroke="black" points="1052,-46.15 1048.5,-36.15 1045,-46.15 1052,-46.15"/>
</g>
<!-- 14eb70f9&#45;7704&#45;48e3&#45;8a29&#45;874184772669&#45;&gt;end -->
<g id="edge11" class="edge">
<title>14eb70f9&#45;7704&#45;48e3&#45;8a29&#45;874184772669&#45;&gt;end</title>
<path fill="none" stroke="black" d="M1425.78,-99.87C1444.75,-99.87 1462.01,-99.87 1472.62,-99.87"/>
<polygon fill="black" stroke="black" points="1472.82,-103.37 1482.82,-99.87 1472.82,-96.37 1472.82,-103.37"/>
<text text-anchor="middle" x="1454.19" y="-106.67" font-family="Helvetica,sans-Serif" font-size="14.00">Finish</text>
</g>
<!-- b8e19222&#45;f66c&#45;47d7&#45;a068&#45;744254d1ce67 -->
<g id="node12" class="node">
<title>b8e19222&#45;f66c&#45;47d7&#45;a068&#45;744254d1ce67</title>
<polygon fill="white" stroke="black" points="1510.5,-36 1220.5,-36 1220.5,0 1510.5,0 1510.5,-36"/>
<text text-anchor="middle" x="1365.5" y="-14.3" font-family="Helvetica,sans-Serif" font-size="14.00">▶ Ran sandbox for `pytrait/__init__.py`.</text>
</g>
<!-- 14eb70f9&#45;7704&#45;48e3&#45;8a29&#45;874184772669&#45;&gt;b8e19222&#45;f66c&#45;47d7&#45;a068&#45;744254d1ce67 -->
<g id="edge9" class="edge">
<title>14eb70f9&#45;7704&#45;48e3&#45;8a29&#45;874184772669&#45;&gt;b8e19222&#45;f66c&#45;47d7&#45;a068&#45;744254d1ce67</title>
<path fill="none" stroke="black" stroke-dasharray="5,2" d="M1340.41,-73.16C1344.51,-64.32 1349.1,-54.41 1353.22,-45.5"/>
<polygon fill="black" stroke="black" points="1356.44,-46.88 1357.47,-36.34 1350.09,-43.94 1356.44,-46.88"/>
</g>
</g>
</svg>
