<?xml version="1.0" encoding="UTF-8" standalone="no"?>
<!DOCTYPE svg PUBLIC "-//W3C//DTD SVG 1.1//EN"
 "http://www.w3.org/Graphics/SVG/1.1/DTD/svg11.dtd">
<!-- Generated by graphviz version 2.43.0 (0)
 -->
<!-- Title: %3 Pages: 1 -->
<svg width="1585pt" height="238pt"
 viewBox="0.00 0.00 1584.50 237.74" xmlns="http://www.w3.org/2000/svg" xmlns:xlink="http://www.w3.org/1999/xlink">
<g id="graph0" class="graph" transform="scale(1 1) rotate(0) translate(36 201.74)">
<title>%3</title>
<polygon fill="dimgray" stroke="transparent" points="-36,36 -36,-201.74 1548.5,-201.74 1548.5,36 -36,36"/>
<text text-anchor="middle" x="756.25" y="-150.54" font-family="Helvetica,sans-Serif" font-size="14.00">Sweep&#39;s Plan &amp; Progress</text>
<!-- start -->
<g id="node1" class="node">
<title>start</title>
</g>
<!-- f40aaf16&#45;be5c&#45;4922&#45;8bab&#45;8d76e162a853 -->
<g id="node3" class="node">
<title>f40aaf16&#45;be5c&#45;4922&#45;8bab&#45;8d76e162a853</title>
<ellipse fill="#0ee832" stroke="black" cx="183.5" cy="-99.87" rx="89.61" ry="26.74"/>
<text text-anchor="middle" x="183.5" y="-103.67" font-family="Helvetica,sans-Serif" font-size="14.00">✓ Create</text>
<text text-anchor="middle" x="183.5" y="-88.67" font-family="Helvetica,sans-Serif" font-size="14.00">pytrait/types.py</text>
</g>
<!-- start&#45;&gt;f40aaf16&#45;be5c&#45;4922&#45;8bab&#45;8d76e162a853 -->
<g id="edge10" class="edge">
<title>start&#45;&gt;f40aaf16&#45;be5c&#45;4922&#45;8bab&#45;8d76e162a853</title>
<path fill="none" stroke="black" d="M42.41,-99.87C46.38,-99.87 63,-99.87 83.51,-99.87"/>
<polygon fill="black" stroke="black" points="83.51,-103.37 93.51,-99.87 83.51,-96.37 83.51,-103.37"/>
<text text-anchor="middle" x="67.85" y="-106.67" font-family="Helvetica,sans-Serif" font-size="14.00">Start</text>
</g>
<!-- end -->
<g id="node2" class="node">
<title>end</title>
</g>
<!-- d9738909&#45;ff60&#45;4ba6&#45;b9d3&#45;354d93e2a38b -->
<g id="node4" class="node">
<title>d9738909&#45;ff60&#45;4ba6&#45;b9d3&#45;354d93e2a38b</title>
<ellipse fill="white" stroke="black" cx="439.5" cy="-99.87" rx="88.28" ry="26.74"/>
<text text-anchor="middle" x="439.5" y="-103.67" font-family="Helvetica,sans-Serif" font-size="14.00">▶ Create</text>
<text text-anchor="middle" x="439.5" y="-88.67" font-family="Helvetica,sans-Serif" font-size="14.00">pytrait/traits.py</text>
</g>
<!-- f40aaf16&#45;be5c&#45;4922&#45;8bab&#45;8d76e162a853&#45;&gt;d9738909&#45;ff60&#45;4ba6&#45;b9d3&#45;354d93e2a38b -->
<g id="edge2" class="edge">
<title>f40aaf16&#45;be5c&#45;4922&#45;8bab&#45;8d76e162a853&#45;&gt;d9738909&#45;ff60&#45;4ba6&#45;b9d3&#45;354d93e2a38b</title>
<path fill="none" stroke="black" d="M273.5,-99.87C295.9,-99.87 318.3,-99.87 340.7,-99.87"/>
<polygon fill="black" stroke="black" points="340.99,-103.37 350.99,-99.87 340.99,-96.37 340.99,-103.37"/>
</g>
<!-- 5dd3fc3a&#45;1769&#45;43b1&#45;adbf&#45;07947e00b1e2 -->
<g id="node8" class="node">
<title>5dd3fc3a&#45;1769&#45;43b1&#45;adbf&#45;07947e00b1e2</title>
<polygon fill="yellow" stroke="black" points="283,-36 0,-36 0,0 283,0 283,-36"/>
<text text-anchor="middle" x="141.5" y="-14.3" font-family="Helvetica,sans-Serif" font-size="14.00">⋯ Ran sandbox for `pytrait/types.py`.</text>
</g>
<!-- f40aaf16&#45;be5c&#45;4922&#45;8bab&#45;8d76e162a853&#45;&gt;5dd3fc3a&#45;1769&#45;43b1&#45;adbf&#45;07947e00b1e2 -->
<g id="edge1" class="edge">
<title>f40aaf16&#45;be5c&#45;4922&#45;8bab&#45;8d76e162a853&#45;&gt;5dd3fc3a&#45;1769&#45;43b1&#45;adbf&#45;07947e00b1e2</title>
<path fill="none" stroke="black" stroke-dasharray="5,2" d="M169.98,-73.16C165.28,-64.22 160.01,-54.2 155.29,-45.22"/>
<polygon fill="black" stroke="black" points="158.37,-43.56 150.62,-36.34 152.17,-46.82 158.37,-43.56"/>
</g>
<!-- 13dd2a6e&#45;7126&#45;4787&#45;bab5&#45;b7b7c1a77dc6 -->
<g id="node5" class="node">
<title>13dd2a6e&#45;7126&#45;4787&#45;bab5&#45;b7b7c1a77dc6</title>
<ellipse fill="white" stroke="black" cx="737.5" cy="-99.87" rx="91.85" ry="26.74"/>
<text text-anchor="middle" x="737.5" y="-103.67" font-family="Helvetica,sans-Serif" font-size="14.00">▶ Create</text>
<text text-anchor="middle" x="737.5" y="-88.67" font-family="Helvetica,sans-Serif" font-size="14.00">pytrait/hooks.py</text>
</g>
<!-- d9738909&#45;ff60&#45;4ba6&#45;b9d3&#45;354d93e2a38b&#45;&gt;13dd2a6e&#45;7126&#45;4787&#45;bab5&#45;b7b7c1a77dc6 -->
<g id="edge4" class="edge">
<title>d9738909&#45;ff60&#45;4ba6&#45;b9d3&#45;354d93e2a38b&#45;&gt;13dd2a6e&#45;7126&#45;4787&#45;bab5&#45;b7b7c1a77dc6</title>
<path fill="none" stroke="black" d="M527.97,-99.87C563.75,-99.87 599.54,-99.87 635.33,-99.87"/>
<polygon fill="black" stroke="black" points="635.42,-103.37 645.42,-99.87 635.42,-96.37 635.42,-103.37"/>
</g>
<!-- 9622d26d&#45;c15f&#45;4abb&#45;ab05&#45;e807a3e9453b -->
<g id="node9" class="node">
<title>9622d26d&#45;c15f&#45;4abb&#45;ab05&#45;e807a3e9453b</title>
<polygon fill="white" stroke="black" points="578,-36 301,-36 301,0 578,0 578,-36"/>
<text text-anchor="middle" x="439.5" y="-14.3" font-family="Helvetica,sans-Serif" font-size="14.00">▶ Ran sandbox for `pytrait/traits.py`.</text>
</g>
<!-- d9738909&#45;ff60&#45;4ba6&#45;b9d3&#45;354d93e2a38b&#45;&gt;9622d26d&#45;c15f&#45;4abb&#45;ab05&#45;e807a3e9453b -->
<g id="edge3" class="edge">
<title>d9738909&#45;ff60&#45;4ba6&#45;b9d3&#45;354d93e2a38b&#45;&gt;9622d26d&#45;c15f&#45;4abb&#45;ab05&#45;e807a3e9453b</title>
<path fill="none" stroke="black" stroke-dasharray="5,2" d="M439.5,-72.72C439.5,-64.27 439.5,-54.89 439.5,-46.36"/>
<polygon fill="black" stroke="black" points="443,-46.15 439.5,-36.15 436,-46.15 443,-46.15"/>
</g>
<!-- c019e604&#45;7899&#45;459e&#45;a7cf&#45;8889144cc941 -->
<g id="node6" class="node">
<title>c019e604&#45;7899&#45;459e&#45;a7cf&#45;8889144cc941</title>
<ellipse fill="white" stroke="black" cx="1050.5" cy="-99.87" rx="109.7" ry="26.74"/>
<text text-anchor="middle" x="1050.5" y="-103.67" font-family="Helvetica,sans-Serif" font-size="14.00">▶ Create</text>
<text text-anchor="middle" x="1050.5" y="-88.67" font-family="Helvetica,sans-Serif" font-size="14.00">pytrait/examples.py</text>
</g>
<!-- 13dd2a6e&#45;7126&#45;4787&#45;bab5&#45;b7b7c1a77dc6&#45;&gt;c019e604&#45;7899&#45;459e&#45;a7cf&#45;8889144cc941 -->
<g id="edge6" class="edge">
<title>13dd2a6e&#45;7126&#45;4787&#45;bab5&#45;b7b7c1a77dc6&#45;&gt;c019e604&#45;7899&#45;459e&#45;a7cf&#45;8889144cc941</title>
<path fill="none" stroke="black" d="M829.5,-99.87C863.29,-99.87 897.08,-99.87 930.86,-99.87"/>
<polygon fill="black" stroke="black" points="930.87,-103.37 940.87,-99.87 930.87,-96.37 930.87,-103.37"/>
</g>
<!-- 89ebeb96&#45;70cb&#45;470c&#45;8e4f&#45;a92154280710 -->
<g id="node10" class="node">
<title>89ebeb96&#45;70cb&#45;470c&#45;8e4f&#45;a92154280710</title>
<polygon fill="white" stroke="black" points="878.5,-36 596.5,-36 596.5,0 878.5,0 878.5,-36"/>
<text text-anchor="middle" x="737.5" y="-14.3" font-family="Helvetica,sans-Serif" font-size="14.00">▶ Ran sandbox for `pytrait/hooks.py`.</text>
</g>
<!-- 13dd2a6e&#45;7126&#45;4787&#45;bab5&#45;b7b7c1a77dc6&#45;&gt;89ebeb96&#45;70cb&#45;470c&#45;8e4f&#45;a92154280710 -->
<g id="edge5" class="edge">
<title>13dd2a6e&#45;7126&#45;4787&#45;bab5&#45;b7b7c1a77dc6&#45;&gt;89ebeb96&#45;70cb&#45;470c&#45;8e4f&#45;a92154280710</title>
<path fill="none" stroke="black" stroke-dasharray="5,2" d="M737.5,-72.72C737.5,-64.27 737.5,-54.89 737.5,-46.36"/>
<polygon fill="black" stroke="black" points="741,-46.15 737.5,-36.15 734,-46.15 741,-46.15"/>
</g>
<!-- 14eb70f9&#45;7704&#45;48e3&#45;8a29&#45;874184772669 -->
<g id="node7" class="node">
<title>14eb70f9&#45;7704&#45;48e3&#45;8a29&#45;874184772669</title>
<ellipse fill="white" stroke="black" cx="1330.5" cy="-99.87" rx="96.75" ry="26.74"/>
<text text-anchor="middle" x="1330.5" y="-103.67" font-family="Helvetica,sans-Serif" font-size="14.00">▶ Modify</text>
<text text-anchor="middle" x="1330.5" y="-88.67" font-family="Helvetica,sans-Serif" font-size="14.00">pytrait/__init__.py</text>
</g>
<!-- c019e604&#45;7899&#45;459e&#45;a7cf&#45;8889144cc941&#45;&gt;14eb70f9&#45;7704&#45;48e3&#45;8a29&#45;874184772669 -->
<g id="edge8" class="edge">
<title>c019e604&#45;7899&#45;459e&#45;a7cf&#45;8889144cc941&#45;&gt;14eb70f9&#45;7704&#45;48e3&#45;8a29&#45;874184772669</title>
<path fill="none" stroke="black" d="M1160.15,-99.87C1181.21,-99.87 1202.28,-99.87 1223.34,-99.87"/>
<polygon fill="black" stroke="black" points="1223.35,-103.37 1233.35,-99.87 1223.35,-96.37 1223.35,-103.37"/>
</g>
<!-- 1f3d842e&#45;a06a&#45;4f56&#45;9aba&#45;0d565f9a94f6 -->
<g id="node11" class="node">
<title>1f3d842e&#45;a06a&#45;4f56&#45;9aba&#45;0d565f9a94f6</title>
<polygon fill="white" stroke="black" points="1204.5,-36 896.5,-36 896.5,0 1204.5,0 1204.5,-36"/>
<text text-anchor="middle" x="1050.5" y="-14.3" font-family="Helvetica,sans-Serif" font-size="14.00">▶ Ran sandbox for `pytrait/examples.py`.</text>
</g>
<!-- c019e604&#45;7899&#45;459e&#45;a7cf&#45;8889144cc941&#45;&gt;1f3d842e&#45;a06a&#45;4f56&#45;9aba&#45;0d565f9a94f6 -->
<g id="edge7" class="edge">
<title>c019e604&#45;7899&#45;459e&#45;a7cf&#45;8889144cc941&#45;&gt;1f3d842e&#45;a06a&#45;4f56&#45;9aba&#45;0d565f9a94f6</title>
<path fill="none" stroke="black" stroke-dasharray="5,2" d="M1050.5,-72.72C1050.5,-64.27 1050.5,-54.89 1050.5,-46.36"/>
<polygon fill="black" stroke="black" points="1054,-46.15 1050.5,-36.15 1047,-46.15 1054,-46.15"/>
</g>
<!-- 14eb70f9&#45;7704&#45;48e3&#45;8a29&#45;874184772669&#45;&gt;end -->
<g id="edge11" class="edge">
<title>14eb70f9&#45;7704&#45;48e3&#45;8a29&#45;874184772669&#45;&gt;end</title>
<path fill="none" stroke="black" d="M1427.78,-99.87C1446.75,-99.87 1464.01,-99.87 1474.62,-99.87"/>
<polygon fill="black" stroke="black" points="1474.82,-103.37 1484.82,-99.87 1474.82,-96.37 1474.82,-103.37"/>
<text text-anchor="middle" x="1456.19" y="-106.67" font-family="Helvetica,sans-Serif" font-size="14.00">Finish</text>
</g>
<!-- b8e19222&#45;f66c&#45;47d7&#45;a068&#45;744254d1ce67 -->
<g id="node12" class="node">
<title>b8e19222&#45;f66c&#45;47d7&#45;a068&#45;744254d1ce67</title>
<polygon fill="white" stroke="black" points="1512.5,-36 1222.5,-36 1222.5,0 1512.5,0 1512.5,-36"/>
<text text-anchor="middle" x="1367.5" y="-14.3" font-family="Helvetica,sans-Serif" font-size="14.00">▶ Ran sandbox for `pytrait/__init__.py`.</text>
</g>
<!-- 14eb70f9&#45;7704&#45;48e3&#45;8a29&#45;874184772669&#45;&gt;b8e19222&#45;f66c&#45;47d7&#45;a068&#45;744254d1ce67 -->
<g id="edge9" class="edge">
<title>14eb70f9&#45;7704&#45;48e3&#45;8a29&#45;874184772669&#45;&gt;b8e19222&#45;f66c&#45;47d7&#45;a068&#45;744254d1ce67</title>
<path fill="none" stroke="black" stroke-dasharray="5,2" d="M1342.41,-73.16C1346.51,-64.32 1351.1,-54.41 1355.22,-45.5"/>
<polygon fill="black" stroke="black" points="1358.44,-46.88 1359.47,-36.34 1352.09,-43.94 1358.44,-46.88"/>
</g>
</g>
</svg>
