<?xml version="1.0" encoding="UTF-8" standalone="no"?>
<!DOCTYPE svg PUBLIC "-//W3C//DTD SVG 1.1//EN"
 "http://www.w3.org/Graphics/SVG/1.1/DTD/svg11.dtd">
<!-- Generated by graphviz version 2.43.0 (0)
 -->
<!-- Title: %3 Pages: 1 -->
<svg width="2182pt" height="593pt"
 viewBox="0.00 0.00 2181.50 593.22" xmlns="http://www.w3.org/2000/svg" xmlns:xlink="http://www.w3.org/1999/xlink">
<g id="graph0" class="graph" transform="scale(1 1) rotate(0) translate(36 557.22)">
<title>%3</title>
<polygon fill="dimgray" stroke="transparent" points="-36,36 -36,-557.22 2145.5,-557.22 2145.5,36 -36,36"/>
<text text-anchor="middle" x="1054.75" y="-506.02" font-family="Helvetica,sans-Serif" font-size="14.00">Sweep&#39;s Plan &amp; Progress</text>
<!-- start -->
<g id="node1" class="node">
<title>start</title>
</g>
<!-- f40aaf16&#45;be5c&#45;4922&#45;8bab&#45;8d76e162a853 -->
<g id="node3" class="node">
<title>f40aaf16&#45;be5c&#45;4922&#45;8bab&#45;8d76e162a853</title>
<ellipse fill="#0ee832" stroke="black" cx="182.5" cy="-455.35" rx="89.61" ry="26.74"/>
<text text-anchor="middle" x="182.5" y="-459.15" font-family="Helvetica,sans-Serif" font-size="14.00">✓ Create</text>
<text text-anchor="middle" x="182.5" y="-444.15" font-family="Helvetica,sans-Serif" font-size="14.00">pytrait/types.py</text>
</g>
<!-- start&#45;&gt;f40aaf16&#45;be5c&#45;4922&#45;8bab&#45;8d76e162a853 -->
<g id="edge19" class="edge">
<title>start&#45;&gt;f40aaf16&#45;be5c&#45;4922&#45;8bab&#45;8d76e162a853</title>
<path fill="none" stroke="black" d="M41.41,-455.35C45.38,-455.35 62,-455.35 82.51,-455.35"/>
<polygon fill="black" stroke="black" points="82.51,-458.85 92.51,-455.35 82.51,-451.85 82.51,-458.85"/>
<text text-anchor="middle" x="66.85" y="-462.15" font-family="Helvetica,sans-Serif" font-size="14.00">Start</text>
</g>
<!-- end -->
<g id="node2" class="node">
<title>end</title>
</g>
<!-- d9738909&#45;ff60&#45;4ba6&#45;b9d3&#45;354d93e2a38b -->
<g id="node4" class="node">
<title>d9738909&#45;ff60&#45;4ba6&#45;b9d3&#45;354d93e2a38b</title>
<ellipse fill="#0ee832" stroke="black" cx="653.5" cy="-455.35" rx="88.28" ry="26.74"/>
<text text-anchor="middle" x="653.5" y="-459.15" font-family="Helvetica,sans-Serif" font-size="14.00">✓ Create</text>
<text text-anchor="middle" x="653.5" y="-444.15" font-family="Helvetica,sans-Serif" font-size="14.00">pytrait/traits.py</text>
</g>
<!-- f40aaf16&#45;be5c&#45;4922&#45;8bab&#45;8d76e162a853&#45;&gt;d9738909&#45;ff60&#45;4ba6&#45;b9d3&#45;354d93e2a38b -->
<g id="edge2" class="edge">
<title>f40aaf16&#45;be5c&#45;4922&#45;8bab&#45;8d76e162a853&#45;&gt;d9738909&#45;ff60&#45;4ba6&#45;b9d3&#45;354d93e2a38b</title>
<path fill="none" stroke="black" d="M272.65,-455.35C366.67,-455.35 460.69,-455.35 554.71,-455.35"/>
<polygon fill="black" stroke="black" points="554.98,-458.85 564.98,-455.35 554.98,-451.85 554.98,-458.85"/>
</g>
<!-- 5dd3fc3a&#45;1769&#45;43b1&#45;adbf&#45;07947e00b1e2 -->
<g id="node8" class="node">
<title>5dd3fc3a&#45;1769&#45;43b1&#45;adbf&#45;07947e00b1e2</title>
<polygon fill="#0ee832" stroke="black" points="281,-391.48 0,-391.48 0,-355.48 281,-355.48 281,-391.48"/>
<text text-anchor="middle" x="140.5" y="-369.78" font-family="Helvetica,sans-Serif" font-size="14.00">✓ Ran sandbox for `pytrait/types.py`.</text>
</g>
<!-- f40aaf16&#45;be5c&#45;4922&#45;8bab&#45;8d76e162a853&#45;&gt;5dd3fc3a&#45;1769&#45;43b1&#45;adbf&#45;07947e00b1e2 -->
<g id="edge1" class="edge">
<title>f40aaf16&#45;be5c&#45;4922&#45;8bab&#45;8d76e162a853&#45;&gt;5dd3fc3a&#45;1769&#45;43b1&#45;adbf&#45;07947e00b1e2</title>
<path fill="none" stroke="black" stroke-dasharray="5,2" d="M168.98,-428.64C164.28,-419.7 159.01,-409.68 154.29,-400.7"/>
<polygon fill="black" stroke="black" points="157.37,-399.04 149.62,-391.82 151.17,-402.3 157.37,-399.04"/>
</g>
<!-- 13dd2a6e&#45;7126&#45;4787&#45;bab5&#45;b7b7c1a77dc6 -->
<g id="node5" class="node">
<title>13dd2a6e&#45;7126&#45;4787&#45;bab5&#45;b7b7c1a77dc6</title>
<ellipse fill="#0ee832" stroke="black" cx="1252.5" cy="-455.35" rx="91.85" ry="26.74"/>
<text text-anchor="middle" x="1252.5" y="-459.15" font-family="Helvetica,sans-Serif" font-size="14.00">✓ Create</text>
<text text-anchor="middle" x="1252.5" y="-444.15" font-family="Helvetica,sans-Serif" font-size="14.00">pytrait/hooks.py</text>
</g>
<!-- d9738909&#45;ff60&#45;4ba6&#45;b9d3&#45;354d93e2a38b&#45;&gt;13dd2a6e&#45;7126&#45;4787&#45;bab5&#45;b7b7c1a77dc6 -->
<g id="edge10" class="edge">
<title>d9738909&#45;ff60&#45;4ba6&#45;b9d3&#45;354d93e2a38b&#45;&gt;13dd2a6e&#45;7126&#45;4787&#45;bab5&#45;b7b7c1a77dc6</title>
<path fill="none" stroke="black" d="M742.12,-455.35C878.11,-455.35 1014.1,-455.35 1150.08,-455.35"/>
<polygon fill="black" stroke="black" points="1150.29,-458.85 1160.29,-455.35 1150.29,-451.85 1150.29,-458.85"/>
</g>
<!-- 9622d26d&#45;c15f&#45;4abb&#45;ab05&#45;e807a3e9453b -->
<g id="node9" class="node">
<title>9622d26d&#45;c15f&#45;4abb&#45;ab05&#45;e807a3e9453b</title>
<polygon fill="#ee0000" stroke="black" points="577.5,-391.48 299.5,-391.48 299.5,-355.48 577.5,-355.48 577.5,-391.48"/>
<text text-anchor="middle" x="438.5" y="-369.78" font-family="Helvetica,sans-Serif" font-size="14.00">✗ Ran sandbox for `pytrait/traits.py`.</text>
</g>
<!-- d9738909&#45;ff60&#45;4ba6&#45;b9d3&#45;354d93e2a38b&#45;&gt;9622d26d&#45;c15f&#45;4abb&#45;ab05&#45;e807a3e9453b -->
<g id="edge3" class="edge">
<title>d9738909&#45;ff60&#45;4ba6&#45;b9d3&#45;354d93e2a38b&#45;&gt;9622d26d&#45;c15f&#45;4abb&#45;ab05&#45;e807a3e9453b</title>
<path fill="none" stroke="black" stroke-dasharray="5,2" d="M598.97,-434.09C566.95,-422.2 526.57,-407.2 494.33,-395.22"/>
<polygon fill="black" stroke="black" points="495.2,-391.81 484.6,-391.61 492.76,-398.37 495.2,-391.81"/>
</g>
<!-- ac14c650&#45;321e&#45;4d27&#45;afa2&#45;576878fd4a1f -->
<g id="node10" class="node">
<title>ac14c650&#45;321e&#45;4d27&#45;afa2&#45;576878fd4a1f</title>
<polygon fill="#ee0000" stroke="black" points="873.5,-391.48 595.5,-391.48 595.5,-355.48 873.5,-355.48 873.5,-391.48"/>
<text text-anchor="middle" x="734.5" y="-369.78" font-family="Helvetica,sans-Serif" font-size="14.00">✗ Ran sandbox for `pytrait/traits.py`.</text>
</g>
<!-- d9738909&#45;ff60&#45;4ba6&#45;b9d3&#45;354d93e2a38b&#45;&gt;ac14c650&#45;321e&#45;4d27&#45;afa2&#45;576878fd4a1f -->
<g id="edge9" class="edge">
<title>d9738909&#45;ff60&#45;4ba6&#45;b9d3&#45;354d93e2a38b&#45;&gt;ac14c650&#45;321e&#45;4d27&#45;afa2&#45;576878fd4a1f</title>
<path fill="none" stroke="black" stroke-dasharray="5,2" d="M678.68,-429.52C688.6,-419.74 699.96,-408.54 709.83,-398.81"/>
<polygon fill="black" stroke="black" points="712.37,-401.22 717.03,-391.7 707.46,-396.23 712.37,-401.22"/>
</g>
<!-- c019e604&#45;7899&#45;459e&#45;a7cf&#45;8889144cc941 -->
<g id="node6" class="node">
<title>c019e604&#45;7899&#45;459e&#45;a7cf&#45;8889144cc941</title>
<ellipse fill="white" stroke="black" cx="1647.5" cy="-455.35" rx="109.7" ry="26.74"/>
<text text-anchor="middle" x="1647.5" y="-459.15" font-family="Helvetica,sans-Serif" font-size="14.00">▶ Create</text>
<text text-anchor="middle" x="1647.5" y="-444.15" font-family="Helvetica,sans-Serif" font-size="14.00">pytrait/examples.py</text>
</g>
<!-- 13dd2a6e&#45;7126&#45;4787&#45;bab5&#45;b7b7c1a77dc6&#45;&gt;c019e604&#45;7899&#45;459e&#45;a7cf&#45;8889144cc941 -->
<g id="edge15" class="edge">
<title>13dd2a6e&#45;7126&#45;4787&#45;bab5&#45;b7b7c1a77dc6&#45;&gt;c019e604&#45;7899&#45;459e&#45;a7cf&#45;8889144cc941</title>
<path fill="none" stroke="black" d="M1344.69,-455.35C1405.66,-455.35 1466.64,-455.35 1527.61,-455.35"/>
<polygon fill="black" stroke="black" points="1527.79,-458.85 1537.79,-455.35 1527.79,-451.85 1527.79,-458.85"/>
</g>
<!-- 89ebeb96&#45;70cb&#45;470c&#45;8e4f&#45;a92154280710 -->
<g id="node11" class="node">
<title>89ebeb96&#45;70cb&#45;470c&#45;8e4f&#45;a92154280710</title>
<polygon fill="#ee0000" stroke="black" points="1175.5,-391.48 891.5,-391.48 891.5,-355.48 1175.5,-355.48 1175.5,-391.48"/>
<text text-anchor="middle" x="1033.5" y="-369.78" font-family="Helvetica,sans-Serif" font-size="14.00">✗ Ran sandbox for `pytrait/hooks.py`.</text>
</g>
<!-- 13dd2a6e&#45;7126&#45;4787&#45;bab5&#45;b7b7c1a77dc6&#45;&gt;89ebeb96&#45;70cb&#45;470c&#45;8e4f&#45;a92154280710 -->
<g id="edge11" class="edge">
<title>13dd2a6e&#45;7126&#45;4787&#45;bab5&#45;b7b7c1a77dc6&#45;&gt;89ebeb96&#45;70cb&#45;470c&#45;8e4f&#45;a92154280710</title>
<path fill="none" stroke="black" stroke-dasharray="5,2" d="M1196.67,-433.99C1163.91,-422.04 1122.64,-406.99 1089.8,-395.01"/>
<polygon fill="black" stroke="black" points="1090.94,-391.7 1080.34,-391.56 1088.54,-398.28 1090.94,-391.7"/>
</g>
<!-- e02e85f3&#45;3ff1&#45;468e&#45;96ab&#45;0aa58d51839f -->
<g id="node12" class="node">
<title>e02e85f3&#45;3ff1&#45;468e&#45;96ab&#45;0aa58d51839f</title>
<polygon fill="white" stroke="black" points="1475.5,-391.48 1193.5,-391.48 1193.5,-355.48 1475.5,-355.48 1475.5,-391.48"/>
<text text-anchor="middle" x="1334.5" y="-369.78" font-family="Helvetica,sans-Serif" font-size="14.00">▶ Ran sandbox for `pytrait/hooks.py`.</text>
</g>
<!-- 13dd2a6e&#45;7126&#45;4787&#45;bab5&#45;b7b7c1a77dc6&#45;&gt;e02e85f3&#45;3ff1&#45;468e&#45;96ab&#45;0aa58d51839f -->
<g id="edge14" class="edge">
<title>13dd2a6e&#45;7126&#45;4787&#45;bab5&#45;b7b7c1a77dc6&#45;&gt;e02e85f3&#45;3ff1&#45;468e&#45;96ab&#45;0aa58d51839f</title>
<path fill="none" stroke="black" stroke-dasharray="5,2" d="M1278,-429.52C1288.04,-419.74 1299.53,-408.54 1309.52,-398.81"/>
<polygon fill="black" stroke="black" points="1312.1,-401.19 1316.82,-391.7 1307.21,-396.17 1312.1,-401.19"/>
</g>
<!-- 14eb70f9&#45;7704&#45;48e3&#45;8a29&#45;874184772669 -->
<g id="node7" class="node">
<title>14eb70f9&#45;7704&#45;48e3&#45;8a29&#45;874184772669</title>
<ellipse fill="white" stroke="black" cx="1927.5" cy="-455.35" rx="96.75" ry="26.74"/>
<text text-anchor="middle" x="1927.5" y="-459.15" font-family="Helvetica,sans-Serif" font-size="14.00">▶ Modify</text>
<text text-anchor="middle" x="1927.5" y="-444.15" font-family="Helvetica,sans-Serif" font-size="14.00">pytrait/__init__.py</text>
</g>
<!-- c019e604&#45;7899&#45;459e&#45;a7cf&#45;8889144cc941&#45;&gt;14eb70f9&#45;7704&#45;48e3&#45;8a29&#45;874184772669 -->
<g id="edge17" class="edge">
<title>c019e604&#45;7899&#45;459e&#45;a7cf&#45;8889144cc941&#45;&gt;14eb70f9&#45;7704&#45;48e3&#45;8a29&#45;874184772669</title>
<path fill="none" stroke="black" d="M1757.15,-455.35C1778.21,-455.35 1799.28,-455.35 1820.34,-455.35"/>
<polygon fill="black" stroke="black" points="1820.35,-458.85 1830.35,-455.35 1820.35,-451.85 1820.35,-458.85"/>
</g>
<!-- 1f3d842e&#45;a06a&#45;4f56&#45;9aba&#45;0d565f9a94f6 -->
<g id="node13" class="node">
<title>1f3d842e&#45;a06a&#45;4f56&#45;9aba&#45;0d565f9a94f6</title>
<polygon fill="white" stroke="black" points="1801.5,-391.48 1493.5,-391.48 1493.5,-355.48 1801.5,-355.48 1801.5,-391.48"/>
<text text-anchor="middle" x="1647.5" y="-369.78" font-family="Helvetica,sans-Serif" font-size="14.00">▶ Ran sandbox for `pytrait/examples.py`.</text>
</g>
<!-- c019e604&#45;7899&#45;459e&#45;a7cf&#45;8889144cc941&#45;&gt;1f3d842e&#45;a06a&#45;4f56&#45;9aba&#45;0d565f9a94f6 -->
<g id="edge16" class="edge">
<title>c019e604&#45;7899&#45;459e&#45;a7cf&#45;8889144cc941&#45;&gt;1f3d842e&#45;a06a&#45;4f56&#45;9aba&#45;0d565f9a94f6</title>
<path fill="none" stroke="black" stroke-dasharray="5,2" d="M1647.5,-428.2C1647.5,-419.75 1647.5,-410.37 1647.5,-401.84"/>
<polygon fill="black" stroke="black" points="1651,-401.63 1647.5,-391.63 1644,-401.63 1651,-401.63"/>
</g>
<!-- 14eb70f9&#45;7704&#45;48e3&#45;8a29&#45;874184772669&#45;&gt;end -->
<g id="edge20" class="edge">
<title>14eb70f9&#45;7704&#45;48e3&#45;8a29&#45;874184772669&#45;&gt;end</title>
<path fill="none" stroke="black" d="M2024.78,-455.35C2043.75,-455.35 2061.01,-455.35 2071.62,-455.35"/>
<polygon fill="black" stroke="black" points="2071.82,-458.85 2081.82,-455.35 2071.82,-451.85 2071.82,-458.85"/>
<text text-anchor="middle" x="2053.19" y="-462.15" font-family="Helvetica,sans-Serif" font-size="14.00">Finish</text>
</g>
<!-- b8e19222&#45;f66c&#45;47d7&#45;a068&#45;744254d1ce67 -->
<g id="node14" class="node">
<title>b8e19222&#45;f66c&#45;47d7&#45;a068&#45;744254d1ce67</title>
<polygon fill="white" stroke="black" points="2109.5,-391.48 1819.5,-391.48 1819.5,-355.48 2109.5,-355.48 2109.5,-391.48"/>
<text text-anchor="middle" x="1964.5" y="-369.78" font-family="Helvetica,sans-Serif" font-size="14.00">▶ Ran sandbox for `pytrait/__init__.py`.</text>
</g>
<!-- 14eb70f9&#45;7704&#45;48e3&#45;8a29&#45;874184772669&#45;&gt;b8e19222&#45;f66c&#45;47d7&#45;a068&#45;744254d1ce67 -->
<g id="edge18" class="edge">
<title>14eb70f9&#45;7704&#45;48e3&#45;8a29&#45;874184772669&#45;&gt;b8e19222&#45;f66c&#45;47d7&#45;a068&#45;744254d1ce67</title>
<path fill="none" stroke="black" stroke-dasharray="5,2" d="M1939.41,-428.64C1943.51,-419.8 1948.1,-409.89 1952.22,-400.98"/>
<polygon fill="black" stroke="black" points="1955.44,-402.36 1956.47,-391.82 1949.09,-399.42 1955.44,-402.36"/>
</g>
<!-- 54988a34&#45;7ffa&#45;40bd&#45;9a7a&#45;15293322a2f2 -->
<g id="node15" class="node">
<title>54988a34&#45;7ffa&#45;40bd&#45;9a7a&#45;15293322a2f2</title>
<ellipse fill="#0ee832" stroke="black" cx="438.5" cy="-277.61" rx="88.28" ry="26.74"/>
<text text-anchor="middle" x="438.5" y="-281.41" font-family="Helvetica,sans-Serif" font-size="14.00">✓ Modify</text>
<text text-anchor="middle" x="438.5" y="-266.41" font-family="Helvetica,sans-Serif" font-size="14.00">pytrait/traits.py</text>
</g>
<!-- 9622d26d&#45;c15f&#45;4abb&#45;ab05&#45;e807a3e9453b&#45;&gt;54988a34&#45;7ffa&#45;40bd&#45;9a7a&#45;15293322a2f2 -->
<g id="edge4" class="edge">
<title>9622d26d&#45;c15f&#45;4abb&#45;ab05&#45;e807a3e9453b&#45;&gt;54988a34&#45;7ffa&#45;40bd&#45;9a7a&#45;15293322a2f2</title>
<path fill="none" stroke="black" d="M438.5,-355.26C438.5,-343.96 438.5,-328.75 438.5,-314.86"/>
<polygon fill="black" stroke="black" points="442,-314.58 438.5,-304.58 435,-314.58 442,-314.58"/>
<text text-anchor="middle" x="536" y="-326.28" font-family="Helvetica,sans-Serif" font-size="14.00">Additional changes required</text>
</g>
<!-- 5548c2a7&#45;a545&#45;41d5&#45;8407&#45;77b612715fff -->
<g id="node16" class="node">
<title>5548c2a7&#45;a545&#45;41d5&#45;8407&#45;77b612715fff</title>
<ellipse fill="#ee0000" stroke="black" cx="1033.5" cy="-277.61" rx="91.85" ry="26.74"/>
<text text-anchor="middle" x="1033.5" y="-281.41" font-family="Helvetica,sans-Serif" font-size="14.00">✗ Modify</text>
<text text-anchor="middle" x="1033.5" y="-266.41" font-family="Helvetica,sans-Serif" font-size="14.00">pytrait/hooks.py</text>
</g>
<!-- 89ebeb96&#45;70cb&#45;470c&#45;8e4f&#45;a92154280710&#45;&gt;5548c2a7&#45;a545&#45;41d5&#45;8407&#45;77b612715fff -->
<g id="edge12" class="edge">
<title>89ebeb96&#45;70cb&#45;470c&#45;8e4f&#45;a92154280710&#45;&gt;5548c2a7&#45;a545&#45;41d5&#45;8407&#45;77b612715fff</title>
<path fill="none" stroke="black" d="M1033.5,-355.26C1033.5,-343.96 1033.5,-328.75 1033.5,-314.86"/>
<polygon fill="black" stroke="black" points="1037,-314.58 1033.5,-304.58 1030,-314.58 1037,-314.58"/>
<text text-anchor="middle" x="1131" y="-326.28" font-family="Helvetica,sans-Serif" font-size="14.00">Additional changes required</text>
</g>
<!-- 001108c2&#45;6cc1&#45;4864&#45;81e1&#45;40197e7e2bbe -->
<g id="node17" class="node">
<title>001108c2&#45;6cc1&#45;4864&#45;81e1&#45;40197e7e2bbe</title>
<polygon fill="#ee0000" stroke="black" points="441.5,-213.74 163.5,-213.74 163.5,-177.74 441.5,-177.74 441.5,-213.74"/>
<text text-anchor="middle" x="302.5" y="-192.04" font-family="Helvetica,sans-Serif" font-size="14.00">✗ Ran sandbox for `pytrait/traits.py`.</text>
</g>
<!-- 54988a34&#45;7ffa&#45;40bd&#45;9a7a&#45;15293322a2f2&#45;&gt;001108c2&#45;6cc1&#45;4864&#45;81e1&#45;40197e7e2bbe -->
<g id="edge5" class="edge">
<title>54988a34&#45;7ffa&#45;40bd&#45;9a7a&#45;15293322a2f2&#45;&gt;001108c2&#45;6cc1&#45;4864&#45;81e1&#45;40197e7e2bbe</title>
<path fill="none" stroke="black" stroke-dasharray="5,2" d="M399.16,-253.51C380.69,-242.66 358.76,-229.78 340.47,-219.04"/>
<polygon fill="black" stroke="black" points="342.2,-216 331.81,-213.95 338.66,-222.03 342.2,-216"/>
</g>
<!-- 5f5da67e&#45;dae4&#45;4368&#45;a88d&#45;53a01477f745 -->
<g id="node18" class="node">
<title>5f5da67e&#45;dae4&#45;4368&#45;a88d&#45;53a01477f745</title>
<polygon fill="#ee0000" stroke="black" points="737.5,-213.74 459.5,-213.74 459.5,-177.74 737.5,-177.74 737.5,-213.74"/>
<text text-anchor="middle" x="598.5" y="-192.04" font-family="Helvetica,sans-Serif" font-size="14.00">✗ Ran sandbox for `pytrait/traits.py`.</text>
</g>
<!-- 54988a34&#45;7ffa&#45;40bd&#45;9a7a&#45;15293322a2f2&#45;&gt;5f5da67e&#45;dae4&#45;4368&#45;a88d&#45;53a01477f745 -->
<g id="edge8" class="edge">
<title>54988a34&#45;7ffa&#45;40bd&#45;9a7a&#45;15293322a2f2&#45;&gt;5f5da67e&#45;dae4&#45;4368&#45;a88d&#45;53a01477f745</title>
<path fill="none" stroke="black" stroke-dasharray="5,2" d="M483.07,-254.36C505.66,-243.08 532.98,-229.45 555.37,-218.27"/>
<polygon fill="black" stroke="black" points="556.93,-221.4 564.31,-213.81 553.8,-215.14 556.93,-221.4"/>
</g>
<!-- 5506e8dc&#45;4e7f&#45;48cb&#45;99e5&#45;982aadba6cdf -->
<g id="node19" class="node">
<title>5506e8dc&#45;4e7f&#45;48cb&#45;99e5&#45;982aadba6cdf</title>
<polygon fill="yellow" stroke="black" points="1176.5,-213.74 890.5,-213.74 890.5,-177.74 1176.5,-177.74 1176.5,-213.74"/>
<text text-anchor="middle" x="1033.5" y="-192.04" font-family="Helvetica,sans-Serif" font-size="14.00">⋯ Ran sandbox for `pytrait/hooks.py`.</text>
</g>
<!-- 5548c2a7&#45;a545&#45;41d5&#45;8407&#45;77b612715fff&#45;&gt;5506e8dc&#45;4e7f&#45;48cb&#45;99e5&#45;982aadba6cdf -->
<g id="edge13" class="edge">
<title>5548c2a7&#45;a545&#45;41d5&#45;8407&#45;77b612715fff&#45;&gt;5506e8dc&#45;4e7f&#45;48cb&#45;99e5&#45;982aadba6cdf</title>
<path fill="none" stroke="black" stroke-dasharray="5,2" d="M1033.5,-250.46C1033.5,-242.01 1033.5,-232.63 1033.5,-224.1"/>
<polygon fill="black" stroke="black" points="1037,-223.89 1033.5,-213.89 1030,-223.89 1037,-223.89"/>
</g>
<!-- 4a624526&#45;f0f9&#45;4bef&#45;932c&#45;6860d165fe6e -->
<g id="node20" class="node">
<title>4a624526&#45;f0f9&#45;4bef&#45;932c&#45;6860d165fe6e</title>
<ellipse fill="#ee0000" stroke="black" cx="302.5" cy="-99.87" rx="88.28" ry="26.74"/>
<text text-anchor="middle" x="302.5" y="-103.67" font-family="Helvetica,sans-Serif" font-size="14.00">✗ Modify</text>
<text text-anchor="middle" x="302.5" y="-88.67" font-family="Helvetica,sans-Serif" font-size="14.00">pytrait/traits.py</text>
</g>
<!-- 001108c2&#45;6cc1&#45;4864&#45;81e1&#45;40197e7e2bbe&#45;&gt;4a624526&#45;f0f9&#45;4bef&#45;932c&#45;6860d165fe6e -->
<g id="edge6" class="edge">
<title>001108c2&#45;6cc1&#45;4864&#45;81e1&#45;40197e7e2bbe&#45;&gt;4a624526&#45;f0f9&#45;4bef&#45;932c&#45;6860d165fe6e</title>
<path fill="none" stroke="black" d="M302.5,-177.52C302.5,-166.22 302.5,-151.01 302.5,-137.12"/>
<polygon fill="black" stroke="black" points="306,-136.84 302.5,-126.84 299,-136.84 306,-136.84"/>
<text text-anchor="middle" x="400" y="-148.54" font-family="Helvetica,sans-Serif" font-size="14.00">Additional changes required</text>
</g>
<!-- 64279b4e&#45;016c&#45;4f50&#45;a343&#45;30e65b10a958 -->
<g id="node21" class="node">
<title>64279b4e&#45;016c&#45;4f50&#45;a343&#45;30e65b10a958</title>
<polygon fill="#ee0000" stroke="black" points="441.5,-36 163.5,-36 163.5,0 441.5,0 441.5,-36"/>
<text text-anchor="middle" x="302.5" y="-14.3" font-family="Helvetica,sans-Serif" font-size="14.00">✗ Ran sandbox for `pytrait/traits.py`.</text>
</g>
<!-- 4a624526&#45;f0f9&#45;4bef&#45;932c&#45;6860d165fe6e&#45;&gt;64279b4e&#45;016c&#45;4f50&#45;a343&#45;30e65b10a958 -->
<g id="edge7" class="edge">
<title>4a624526&#45;f0f9&#45;4bef&#45;932c&#45;6860d165fe6e&#45;&gt;64279b4e&#45;016c&#45;4f50&#45;a343&#45;30e65b10a958</title>
<path fill="none" stroke="black" stroke-dasharray="5,2" d="M302.5,-72.72C302.5,-64.27 302.5,-54.89 302.5,-46.36"/>
<polygon fill="black" stroke="black" points="306,-46.15 302.5,-36.15 299,-46.15 306,-46.15"/>
</g>
</g>
</svg>
