<?xml version="1.0" encoding="UTF-8" standalone="no"?>
<!DOCTYPE svg PUBLIC "-//W3C//DTD SVG 1.1//EN"
 "http://www.w3.org/Graphics/SVG/1.1/DTD/svg11.dtd">
<!-- Generated by graphviz version 2.43.0 (0)
 -->
<!-- Title: %3 Pages: 1 -->
<svg width="1880pt" height="415pt"
 viewBox="0.00 0.00 1879.50 415.48" xmlns="http://www.w3.org/2000/svg" xmlns:xlink="http://www.w3.org/1999/xlink">
<g id="graph0" class="graph" transform="scale(1 1) rotate(0) translate(36 379.48)">
<title>%3</title>
<polygon fill="dimgray" stroke="transparent" points="-36,36 -36,-379.48 1843.5,-379.48 1843.5,36 -36,36"/>
<text text-anchor="middle" x="903.75" y="-328.28" font-family="Helvetica,sans-Serif" font-size="14.00">Sweep&#39;s Plan &amp; Progress</text>
<!-- start -->
<g id="node1" class="node">
<title>start</title>
</g>
<!-- f40aaf16&#45;be5c&#45;4922&#45;8bab&#45;8d76e162a853 -->
<g id="node3" class="node">
<title>f40aaf16&#45;be5c&#45;4922&#45;8bab&#45;8d76e162a853</title>
<ellipse fill="#0ee832" stroke="black" cx="182.5" cy="-277.61" rx="89.61" ry="26.74"/>
<text text-anchor="middle" x="182.5" y="-281.41" font-family="Helvetica,sans-Serif" font-size="14.00">✓ Create</text>
<text text-anchor="middle" x="182.5" y="-266.41" font-family="Helvetica,sans-Serif" font-size="14.00">pytrait/types.py</text>
</g>
<!-- start&#45;&gt;f40aaf16&#45;be5c&#45;4922&#45;8bab&#45;8d76e162a853 -->
<g id="edge13" class="edge">
<title>start&#45;&gt;f40aaf16&#45;be5c&#45;4922&#45;8bab&#45;8d76e162a853</title>
<path fill="none" stroke="black" d="M41.41,-277.61C45.38,-277.61 62,-277.61 82.51,-277.61"/>
<polygon fill="black" stroke="black" points="82.51,-281.11 92.51,-277.61 82.51,-274.11 82.51,-281.11"/>
<text text-anchor="middle" x="66.85" y="-284.41" font-family="Helvetica,sans-Serif" font-size="14.00">Start</text>
</g>
<!-- end -->
<g id="node2" class="node">
<title>end</title>
</g>
<!-- d9738909&#45;ff60&#45;4ba6&#45;b9d3&#45;354d93e2a38b -->
<g id="node4" class="node">
<title>d9738909&#45;ff60&#45;4ba6&#45;b9d3&#45;354d93e2a38b</title>
<ellipse fill="#0ee832" stroke="black" cx="653.5" cy="-277.61" rx="88.28" ry="26.74"/>
<text text-anchor="middle" x="653.5" y="-281.41" font-family="Helvetica,sans-Serif" font-size="14.00">✓ Create</text>
<text text-anchor="middle" x="653.5" y="-266.41" font-family="Helvetica,sans-Serif" font-size="14.00">pytrait/traits.py</text>
</g>
<!-- f40aaf16&#45;be5c&#45;4922&#45;8bab&#45;8d76e162a853&#45;&gt;d9738909&#45;ff60&#45;4ba6&#45;b9d3&#45;354d93e2a38b -->
<g id="edge2" class="edge">
<title>f40aaf16&#45;be5c&#45;4922&#45;8bab&#45;8d76e162a853&#45;&gt;d9738909&#45;ff60&#45;4ba6&#45;b9d3&#45;354d93e2a38b</title>
<path fill="none" stroke="black" d="M272.65,-277.61C366.67,-277.61 460.69,-277.61 554.71,-277.61"/>
<polygon fill="black" stroke="black" points="554.98,-281.11 564.98,-277.61 554.98,-274.11 554.98,-281.11"/>
</g>
<!-- 5dd3fc3a&#45;1769&#45;43b1&#45;adbf&#45;07947e00b1e2 -->
<g id="node8" class="node">
<title>5dd3fc3a&#45;1769&#45;43b1&#45;adbf&#45;07947e00b1e2</title>
<polygon fill="#0ee832" stroke="black" points="281,-213.74 0,-213.74 0,-177.74 281,-177.74 281,-213.74"/>
<text text-anchor="middle" x="140.5" y="-192.04" font-family="Helvetica,sans-Serif" font-size="14.00">✓ Ran sandbox for `pytrait/types.py`.</text>
</g>
<!-- f40aaf16&#45;be5c&#45;4922&#45;8bab&#45;8d76e162a853&#45;&gt;5dd3fc3a&#45;1769&#45;43b1&#45;adbf&#45;07947e00b1e2 -->
<g id="edge1" class="edge">
<title>f40aaf16&#45;be5c&#45;4922&#45;8bab&#45;8d76e162a853&#45;&gt;5dd3fc3a&#45;1769&#45;43b1&#45;adbf&#45;07947e00b1e2</title>
<path fill="none" stroke="black" stroke-dasharray="5,2" d="M168.98,-250.9C164.28,-241.96 159.01,-231.94 154.29,-222.96"/>
<polygon fill="black" stroke="black" points="157.37,-221.3 149.62,-214.08 151.17,-224.56 157.37,-221.3"/>
</g>
<!-- 13dd2a6e&#45;7126&#45;4787&#45;bab5&#45;b7b7c1a77dc6 -->
<g id="node5" class="node">
<title>13dd2a6e&#45;7126&#45;4787&#45;bab5&#45;b7b7c1a77dc6</title>
<ellipse fill="white" stroke="black" cx="1032.5" cy="-277.61" rx="91.85" ry="26.74"/>
<text text-anchor="middle" x="1032.5" y="-281.41" font-family="Helvetica,sans-Serif" font-size="14.00">▶ Create</text>
<text text-anchor="middle" x="1032.5" y="-266.41" font-family="Helvetica,sans-Serif" font-size="14.00">pytrait/hooks.py</text>
</g>
<!-- d9738909&#45;ff60&#45;4ba6&#45;b9d3&#45;354d93e2a38b&#45;&gt;13dd2a6e&#45;7126&#45;4787&#45;bab5&#45;b7b7c1a77dc6 -->
<g id="edge7" class="edge">
<title>d9738909&#45;ff60&#45;4ba6&#45;b9d3&#45;354d93e2a38b&#45;&gt;13dd2a6e&#45;7126&#45;4787&#45;bab5&#45;b7b7c1a77dc6</title>
<path fill="none" stroke="black" d="M741.96,-277.61C804.8,-277.61 867.64,-277.61 930.48,-277.61"/>
<polygon fill="black" stroke="black" points="930.57,-281.11 940.57,-277.61 930.57,-274.11 930.57,-281.11"/>
</g>
<!-- 9622d26d&#45;c15f&#45;4abb&#45;ab05&#45;e807a3e9453b -->
<g id="node9" class="node">
<title>9622d26d&#45;c15f&#45;4abb&#45;ab05&#45;e807a3e9453b</title>
<polygon fill="#ee0000" stroke="black" points="577.5,-213.74 299.5,-213.74 299.5,-177.74 577.5,-177.74 577.5,-213.74"/>
<text text-anchor="middle" x="438.5" y="-192.04" font-family="Helvetica,sans-Serif" font-size="14.00">✗ Ran sandbox for `pytrait/traits.py`.</text>
</g>
<!-- d9738909&#45;ff60&#45;4ba6&#45;b9d3&#45;354d93e2a38b&#45;&gt;9622d26d&#45;c15f&#45;4abb&#45;ab05&#45;e807a3e9453b -->
<g id="edge3" class="edge">
<title>d9738909&#45;ff60&#45;4ba6&#45;b9d3&#45;354d93e2a38b&#45;&gt;9622d26d&#45;c15f&#45;4abb&#45;ab05&#45;e807a3e9453b</title>
<path fill="none" stroke="black" stroke-dasharray="5,2" d="M598.97,-256.35C566.95,-244.46 526.57,-229.46 494.33,-217.48"/>
<polygon fill="black" stroke="black" points="495.2,-214.07 484.6,-213.87 492.76,-220.63 495.2,-214.07"/>
</g>
<!-- ac14c650&#45;321e&#45;4d27&#45;afa2&#45;576878fd4a1f -->
<g id="node10" class="node">
<title>ac14c650&#45;321e&#45;4d27&#45;afa2&#45;576878fd4a1f</title>
<polygon fill="white" stroke="black" points="873,-213.74 596,-213.74 596,-177.74 873,-177.74 873,-213.74"/>
<text text-anchor="middle" x="734.5" y="-192.04" font-family="Helvetica,sans-Serif" font-size="14.00">▶ Ran sandbox for `pytrait/traits.py`.</text>
</g>
<!-- d9738909&#45;ff60&#45;4ba6&#45;b9d3&#45;354d93e2a38b&#45;&gt;ac14c650&#45;321e&#45;4d27&#45;afa2&#45;576878fd4a1f -->
<g id="edge6" class="edge">
<title>d9738909&#45;ff60&#45;4ba6&#45;b9d3&#45;354d93e2a38b&#45;&gt;ac14c650&#45;321e&#45;4d27&#45;afa2&#45;576878fd4a1f</title>
<path fill="none" stroke="black" stroke-dasharray="5,2" d="M678.68,-251.78C688.6,-242 699.96,-230.8 709.83,-221.07"/>
<polygon fill="black" stroke="black" points="712.37,-223.48 717.03,-213.96 707.46,-218.49 712.37,-223.48"/>
</g>
<!-- c019e604&#45;7899&#45;459e&#45;a7cf&#45;8889144cc941 -->
<g id="node6" class="node">
<title>c019e604&#45;7899&#45;459e&#45;a7cf&#45;8889144cc941</title>
<ellipse fill="white" stroke="black" cx="1345.5" cy="-277.61" rx="109.7" ry="26.74"/>
<text text-anchor="middle" x="1345.5" y="-281.41" font-family="Helvetica,sans-Serif" font-size="14.00">▶ Create</text>
<text text-anchor="middle" x="1345.5" y="-266.41" font-family="Helvetica,sans-Serif" font-size="14.00">pytrait/examples.py</text>
</g>
<!-- 13dd2a6e&#45;7126&#45;4787&#45;bab5&#45;b7b7c1a77dc6&#45;&gt;c019e604&#45;7899&#45;459e&#45;a7cf&#45;8889144cc941 -->
<g id="edge9" class="edge">
<title>13dd2a6e&#45;7126&#45;4787&#45;bab5&#45;b7b7c1a77dc6&#45;&gt;c019e604&#45;7899&#45;459e&#45;a7cf&#45;8889144cc941</title>
<path fill="none" stroke="black" d="M1124.5,-277.61C1158.29,-277.61 1192.08,-277.61 1225.86,-277.61"/>
<polygon fill="black" stroke="black" points="1225.87,-281.11 1235.87,-277.61 1225.87,-274.11 1225.87,-281.11"/>
</g>
<!-- 89ebeb96&#45;70cb&#45;470c&#45;8e4f&#45;a92154280710 -->
<g id="node11" class="node">
<title>89ebeb96&#45;70cb&#45;470c&#45;8e4f&#45;a92154280710</title>
<polygon fill="white" stroke="black" points="1173.5,-213.74 891.5,-213.74 891.5,-177.74 1173.5,-177.74 1173.5,-213.74"/>
<text text-anchor="middle" x="1032.5" y="-192.04" font-family="Helvetica,sans-Serif" font-size="14.00">▶ Ran sandbox for `pytrait/hooks.py`.</text>
</g>
<!-- 13dd2a6e&#45;7126&#45;4787&#45;bab5&#45;b7b7c1a77dc6&#45;&gt;89ebeb96&#45;70cb&#45;470c&#45;8e4f&#45;a92154280710 -->
<g id="edge8" class="edge">
<title>13dd2a6e&#45;7126&#45;4787&#45;bab5&#45;b7b7c1a77dc6&#45;&gt;89ebeb96&#45;70cb&#45;470c&#45;8e4f&#45;a92154280710</title>
<path fill="none" stroke="black" stroke-dasharray="5,2" d="M1032.5,-250.46C1032.5,-242.01 1032.5,-232.63 1032.5,-224.1"/>
<polygon fill="black" stroke="black" points="1036,-223.89 1032.5,-213.89 1029,-223.89 1036,-223.89"/>
</g>
<!-- 14eb70f9&#45;7704&#45;48e3&#45;8a29&#45;874184772669 -->
<g id="node7" class="node">
<title>14eb70f9&#45;7704&#45;48e3&#45;8a29&#45;874184772669</title>
<ellipse fill="white" stroke="black" cx="1625.5" cy="-277.61" rx="96.75" ry="26.74"/>
<text text-anchor="middle" x="1625.5" y="-281.41" font-family="Helvetica,sans-Serif" font-size="14.00">▶ Modify</text>
<text text-anchor="middle" x="1625.5" y="-266.41" font-family="Helvetica,sans-Serif" font-size="14.00">pytrait/__init__.py</text>
</g>
<!-- c019e604&#45;7899&#45;459e&#45;a7cf&#45;8889144cc941&#45;&gt;14eb70f9&#45;7704&#45;48e3&#45;8a29&#45;874184772669 -->
<g id="edge11" class="edge">
<title>c019e604&#45;7899&#45;459e&#45;a7cf&#45;8889144cc941&#45;&gt;14eb70f9&#45;7704&#45;48e3&#45;8a29&#45;874184772669</title>
<path fill="none" stroke="black" d="M1455.15,-277.61C1476.21,-277.61 1497.28,-277.61 1518.34,-277.61"/>
<polygon fill="black" stroke="black" points="1518.35,-281.11 1528.35,-277.61 1518.35,-274.11 1518.35,-281.11"/>
</g>
<!-- 1f3d842e&#45;a06a&#45;4f56&#45;9aba&#45;0d565f9a94f6 -->
<g id="node12" class="node">
<title>1f3d842e&#45;a06a&#45;4f56&#45;9aba&#45;0d565f9a94f6</title>
<polygon fill="white" stroke="black" points="1499.5,-213.74 1191.5,-213.74 1191.5,-177.74 1499.5,-177.74 1499.5,-213.74"/>
<text text-anchor="middle" x="1345.5" y="-192.04" font-family="Helvetica,sans-Serif" font-size="14.00">▶ Ran sandbox for `pytrait/examples.py`.</text>
</g>
<!-- c019e604&#45;7899&#45;459e&#45;a7cf&#45;8889144cc941&#45;&gt;1f3d842e&#45;a06a&#45;4f56&#45;9aba&#45;0d565f9a94f6 -->
<g id="edge10" class="edge">
<title>c019e604&#45;7899&#45;459e&#45;a7cf&#45;8889144cc941&#45;&gt;1f3d842e&#45;a06a&#45;4f56&#45;9aba&#45;0d565f9a94f6</title>
<path fill="none" stroke="black" stroke-dasharray="5,2" d="M1345.5,-250.46C1345.5,-242.01 1345.5,-232.63 1345.5,-224.1"/>
<polygon fill="black" stroke="black" points="1349,-223.89 1345.5,-213.89 1342,-223.89 1349,-223.89"/>
</g>
<!-- 14eb70f9&#45;7704&#45;48e3&#45;8a29&#45;874184772669&#45;&gt;end -->
<g id="edge14" class="edge">
<title>14eb70f9&#45;7704&#45;48e3&#45;8a29&#45;874184772669&#45;&gt;end</title>
<path fill="none" stroke="black" d="M1722.78,-277.61C1741.75,-277.61 1759.01,-277.61 1769.62,-277.61"/>
<polygon fill="black" stroke="black" points="1769.82,-281.11 1779.82,-277.61 1769.82,-274.11 1769.82,-281.11"/>
<text text-anchor="middle" x="1751.19" y="-284.41" font-family="Helvetica,sans-Serif" font-size="14.00">Finish</text>
</g>
<!-- b8e19222&#45;f66c&#45;47d7&#45;a068&#45;744254d1ce67 -->
<g id="node13" class="node">
<title>b8e19222&#45;f66c&#45;47d7&#45;a068&#45;744254d1ce67</title>
<polygon fill="white" stroke="black" points="1807.5,-213.74 1517.5,-213.74 1517.5,-177.74 1807.5,-177.74 1807.5,-213.74"/>
<text text-anchor="middle" x="1662.5" y="-192.04" font-family="Helvetica,sans-Serif" font-size="14.00">▶ Ran sandbox for `pytrait/__init__.py`.</text>
</g>
<!-- 14eb70f9&#45;7704&#45;48e3&#45;8a29&#45;874184772669&#45;&gt;b8e19222&#45;f66c&#45;47d7&#45;a068&#45;744254d1ce67 -->
<g id="edge12" class="edge">
<title>14eb70f9&#45;7704&#45;48e3&#45;8a29&#45;874184772669&#45;&gt;b8e19222&#45;f66c&#45;47d7&#45;a068&#45;744254d1ce67</title>
<path fill="none" stroke="black" stroke-dasharray="5,2" d="M1637.41,-250.9C1641.51,-242.06 1646.1,-232.15 1650.22,-223.24"/>
<polygon fill="black" stroke="black" points="1653.44,-224.62 1654.47,-214.08 1647.09,-221.68 1653.44,-224.62"/>
</g>
<!-- 54988a34&#45;7ffa&#45;40bd&#45;9a7a&#45;15293322a2f2 -->
<g id="node14" class="node">
<title>54988a34&#45;7ffa&#45;40bd&#45;9a7a&#45;15293322a2f2</title>
<ellipse fill="yellow" stroke="black" cx="438.5" cy="-99.87" rx="88.28" ry="26.74"/>
<text text-anchor="middle" x="438.5" y="-103.67" font-family="Helvetica,sans-Serif" font-size="14.00">⋯ Modify</text>
<text text-anchor="middle" x="438.5" y="-88.67" font-family="Helvetica,sans-Serif" font-size="14.00">pytrait/traits.py</text>
</g>
<!-- 9622d26d&#45;c15f&#45;4abb&#45;ab05&#45;e807a3e9453b&#45;&gt;54988a34&#45;7ffa&#45;40bd&#45;9a7a&#45;15293322a2f2 -->
<g id="edge4" class="edge">
<title>9622d26d&#45;c15f&#45;4abb&#45;ab05&#45;e807a3e9453b&#45;&gt;54988a34&#45;7ffa&#45;40bd&#45;9a7a&#45;15293322a2f2</title>
<path fill="none" stroke="black" d="M438.5,-177.52C438.5,-166.22 438.5,-151.01 438.5,-137.12"/>
<polygon fill="black" stroke="black" points="442,-136.84 438.5,-126.84 435,-136.84 442,-136.84"/>
<text text-anchor="middle" x="536" y="-148.54" font-family="Helvetica,sans-Serif" font-size="14.00">Additional changes required</text>
</g>
<!-- 001108c2&#45;6cc1&#45;4864&#45;81e1&#45;40197e7e2bbe -->
<g id="node15" class="node">
<title>001108c2&#45;6cc1&#45;4864&#45;81e1&#45;40197e7e2bbe</title>
<polygon fill="white" stroke="black" points="577,-36 300,-36 300,0 577,0 577,-36"/>
<text text-anchor="middle" x="438.5" y="-14.3" font-family="Helvetica,sans-Serif" font-size="14.00">▶ Ran sandbox for `pytrait/traits.py`.</text>
</g>
<!-- 54988a34&#45;7ffa&#45;40bd&#45;9a7a&#45;15293322a2f2&#45;&gt;001108c2&#45;6cc1&#45;4864&#45;81e1&#45;40197e7e2bbe -->
<g id="edge5" class="edge">
<title>54988a34&#45;7ffa&#45;40bd&#45;9a7a&#45;15293322a2f2&#45;&gt;001108c2&#45;6cc1&#45;4864&#45;81e1&#45;40197e7e2bbe</title>
<path fill="none" stroke="black" stroke-dasharray="5,2" d="M438.5,-72.72C438.5,-64.27 438.5,-54.89 438.5,-46.36"/>
<polygon fill="black" stroke="black" points="442,-46.15 438.5,-36.15 435,-46.15 442,-46.15"/>
</g>
</g>
</svg>
