<?xml version="1.0" encoding="UTF-8" standalone="no"?>
<!DOCTYPE svg PUBLIC "-//W3C//DTD SVG 1.1//EN"
 "http://www.w3.org/Graphics/SVG/1.1/DTD/svg11.dtd">
<!-- Generated by graphviz version 2.43.0 (0)
 -->
<!-- Title: %3 Pages: 1 -->
<svg width="1880pt" height="593pt"
 viewBox="0.00 0.00 1879.50 593.22" xmlns="http://www.w3.org/2000/svg" xmlns:xlink="http://www.w3.org/1999/xlink">
<g id="graph0" class="graph" transform="scale(1 1) rotate(0) translate(36 557.22)">
<title>%3</title>
<polygon fill="dimgray" stroke="transparent" points="-36,36 -36,-557.22 1843.5,-557.22 1843.5,36 -36,36"/>
<text text-anchor="middle" x="903.75" y="-506.02" font-family="Helvetica,sans-Serif" font-size="14.00">Sweep&#39;s Plan &amp; Progress</text>
<!-- start -->
<g id="node1" class="node">
<title>start</title>
</g>
<!-- f40aaf16&#45;be5c&#45;4922&#45;8bab&#45;8d76e162a853 -->
<g id="node3" class="node">
<title>f40aaf16&#45;be5c&#45;4922&#45;8bab&#45;8d76e162a853</title>
<ellipse fill="#0ee832" stroke="black" cx="182.5" cy="-455.35" rx="89.61" ry="26.74"/>
<text text-anchor="middle" x="182.5" y="-459.15" font-family="Helvetica,sans-Serif" font-size="14.00">✓ Create</text>
<text text-anchor="middle" x="182.5" y="-444.15" font-family="Helvetica,sans-Serif" font-size="14.00">pytrait/types.py</text>
</g>
<!-- start&#45;&gt;f40aaf16&#45;be5c&#45;4922&#45;8bab&#45;8d76e162a853 -->
<g id="edge16" class="edge">
<title>start&#45;&gt;f40aaf16&#45;be5c&#45;4922&#45;8bab&#45;8d76e162a853</title>
<path fill="none" stroke="black" d="M41.41,-455.35C45.38,-455.35 62,-455.35 82.51,-455.35"/>
<polygon fill="black" stroke="black" points="82.51,-458.85 92.51,-455.35 82.51,-451.85 82.51,-458.85"/>
<text text-anchor="middle" x="66.85" y="-462.15" font-family="Helvetica,sans-Serif" font-size="14.00">Start</text>
</g>
<!-- end -->
<g id="node2" class="node">
<title>end</title>
</g>
<!-- d9738909&#45;ff60&#45;4ba6&#45;b9d3&#45;354d93e2a38b -->
<g id="node4" class="node">
<title>d9738909&#45;ff60&#45;4ba6&#45;b9d3&#45;354d93e2a38b</title>
<ellipse fill="#0ee832" stroke="black" cx="653.5" cy="-455.35" rx="88.28" ry="26.74"/>
<text text-anchor="middle" x="653.5" y="-459.15" font-family="Helvetica,sans-Serif" font-size="14.00">✓ Create</text>
<text text-anchor="middle" x="653.5" y="-444.15" font-family="Helvetica,sans-Serif" font-size="14.00">pytrait/traits.py</text>
</g>
<!-- f40aaf16&#45;be5c&#45;4922&#45;8bab&#45;8d76e162a853&#45;&gt;d9738909&#45;ff60&#45;4ba6&#45;b9d3&#45;354d93e2a38b -->
<g id="edge2" class="edge">
<title>f40aaf16&#45;be5c&#45;4922&#45;8bab&#45;8d76e162a853&#45;&gt;d9738909&#45;ff60&#45;4ba6&#45;b9d3&#45;354d93e2a38b</title>
<path fill="none" stroke="black" d="M272.65,-455.35C366.67,-455.35 460.69,-455.35 554.71,-455.35"/>
<polygon fill="black" stroke="black" points="554.98,-458.85 564.98,-455.35 554.98,-451.85 554.98,-458.85"/>
</g>
<!-- 5dd3fc3a&#45;1769&#45;43b1&#45;adbf&#45;07947e00b1e2 -->
<g id="node8" class="node">
<title>5dd3fc3a&#45;1769&#45;43b1&#45;adbf&#45;07947e00b1e2</title>
<polygon fill="#0ee832" stroke="black" points="281,-391.48 0,-391.48 0,-355.48 281,-355.48 281,-391.48"/>
<text text-anchor="middle" x="140.5" y="-369.78" font-family="Helvetica,sans-Serif" font-size="14.00">✓ Ran sandbox for `pytrait/types.py`.</text>
</g>
<!-- f40aaf16&#45;be5c&#45;4922&#45;8bab&#45;8d76e162a853&#45;&gt;5dd3fc3a&#45;1769&#45;43b1&#45;adbf&#45;07947e00b1e2 -->
<g id="edge1" class="edge">
<title>f40aaf16&#45;be5c&#45;4922&#45;8bab&#45;8d76e162a853&#45;&gt;5dd3fc3a&#45;1769&#45;43b1&#45;adbf&#45;07947e00b1e2</title>
<path fill="none" stroke="black" stroke-dasharray="5,2" d="M168.98,-428.64C164.28,-419.7 159.01,-409.68 154.29,-400.7"/>
<polygon fill="black" stroke="black" points="157.37,-399.04 149.62,-391.82 151.17,-402.3 157.37,-399.04"/>
</g>
<!-- 13dd2a6e&#45;7126&#45;4787&#45;bab5&#45;b7b7c1a77dc6 -->
<g id="node5" class="node">
<title>13dd2a6e&#45;7126&#45;4787&#45;bab5&#45;b7b7c1a77dc6</title>
<ellipse fill="white" stroke="black" cx="1032.5" cy="-455.35" rx="91.85" ry="26.74"/>
<text text-anchor="middle" x="1032.5" y="-459.15" font-family="Helvetica,sans-Serif" font-size="14.00">▶ Create</text>
<text text-anchor="middle" x="1032.5" y="-444.15" font-family="Helvetica,sans-Serif" font-size="14.00">pytrait/hooks.py</text>
</g>
<!-- d9738909&#45;ff60&#45;4ba6&#45;b9d3&#45;354d93e2a38b&#45;&gt;13dd2a6e&#45;7126&#45;4787&#45;bab5&#45;b7b7c1a77dc6 -->
<g id="edge10" class="edge">
<title>d9738909&#45;ff60&#45;4ba6&#45;b9d3&#45;354d93e2a38b&#45;&gt;13dd2a6e&#45;7126&#45;4787&#45;bab5&#45;b7b7c1a77dc6</title>
<path fill="none" stroke="black" d="M741.96,-455.35C804.8,-455.35 867.64,-455.35 930.48,-455.35"/>
<polygon fill="black" stroke="black" points="930.57,-458.85 940.57,-455.35 930.57,-451.85 930.57,-458.85"/>
</g>
<!-- 9622d26d&#45;c15f&#45;4abb&#45;ab05&#45;e807a3e9453b -->
<g id="node9" class="node">
<title>9622d26d&#45;c15f&#45;4abb&#45;ab05&#45;e807a3e9453b</title>
<polygon fill="#ee0000" stroke="black" points="577.5,-391.48 299.5,-391.48 299.5,-355.48 577.5,-355.48 577.5,-391.48"/>
<text text-anchor="middle" x="438.5" y="-369.78" font-family="Helvetica,sans-Serif" font-size="14.00">✗ Ran sandbox for `pytrait/traits.py`.</text>
</g>
<!-- d9738909&#45;ff60&#45;4ba6&#45;b9d3&#45;354d93e2a38b&#45;&gt;9622d26d&#45;c15f&#45;4abb&#45;ab05&#45;e807a3e9453b -->
<g id="edge3" class="edge">
<title>d9738909&#45;ff60&#45;4ba6&#45;b9d3&#45;354d93e2a38b&#45;&gt;9622d26d&#45;c15f&#45;4abb&#45;ab05&#45;e807a3e9453b</title>
<path fill="none" stroke="black" stroke-dasharray="5,2" d="M598.97,-434.09C566.95,-422.2 526.57,-407.2 494.33,-395.22"/>
<polygon fill="black" stroke="black" points="495.2,-391.81 484.6,-391.61 492.76,-398.37 495.2,-391.81"/>
</g>
<!-- ac14c650&#45;321e&#45;4d27&#45;afa2&#45;576878fd4a1f -->
<g id="node10" class="node">
<title>ac14c650&#45;321e&#45;4d27&#45;afa2&#45;576878fd4a1f</title>
<polygon fill="#ee0000" stroke="black" points="873.5,-391.48 595.5,-391.48 595.5,-355.48 873.5,-355.48 873.5,-391.48"/>
<text text-anchor="middle" x="734.5" y="-369.78" font-family="Helvetica,sans-Serif" font-size="14.00">✗ Ran sandbox for `pytrait/traits.py`.</text>
</g>
<!-- d9738909&#45;ff60&#45;4ba6&#45;b9d3&#45;354d93e2a38b&#45;&gt;ac14c650&#45;321e&#45;4d27&#45;afa2&#45;576878fd4a1f -->
<g id="edge9" class="edge">
<title>d9738909&#45;ff60&#45;4ba6&#45;b9d3&#45;354d93e2a38b&#45;&gt;ac14c650&#45;321e&#45;4d27&#45;afa2&#45;576878fd4a1f</title>
<path fill="none" stroke="black" stroke-dasharray="5,2" d="M678.68,-429.52C688.6,-419.74 699.96,-408.54 709.83,-398.81"/>
<polygon fill="black" stroke="black" points="712.37,-401.22 717.03,-391.7 707.46,-396.23 712.37,-401.22"/>
</g>
<!-- c019e604&#45;7899&#45;459e&#45;a7cf&#45;8889144cc941 -->
<g id="node6" class="node">
<title>c019e604&#45;7899&#45;459e&#45;a7cf&#45;8889144cc941</title>
<ellipse fill="white" stroke="black" cx="1345.5" cy="-455.35" rx="109.7" ry="26.74"/>
<text text-anchor="middle" x="1345.5" y="-459.15" font-family="Helvetica,sans-Serif" font-size="14.00">▶ Create</text>
<text text-anchor="middle" x="1345.5" y="-444.15" font-family="Helvetica,sans-Serif" font-size="14.00">pytrait/examples.py</text>
</g>
<!-- 13dd2a6e&#45;7126&#45;4787&#45;bab5&#45;b7b7c1a77dc6&#45;&gt;c019e604&#45;7899&#45;459e&#45;a7cf&#45;8889144cc941 -->
<g id="edge12" class="edge">
<title>13dd2a6e&#45;7126&#45;4787&#45;bab5&#45;b7b7c1a77dc6&#45;&gt;c019e604&#45;7899&#45;459e&#45;a7cf&#45;8889144cc941</title>
<path fill="none" stroke="black" d="M1124.5,-455.35C1158.29,-455.35 1192.08,-455.35 1225.86,-455.35"/>
<polygon fill="black" stroke="black" points="1225.87,-458.85 1235.87,-455.35 1225.87,-451.85 1225.87,-458.85"/>
</g>
<!-- 89ebeb96&#45;70cb&#45;470c&#45;8e4f&#45;a92154280710 -->
<g id="node11" class="node">
<title>89ebeb96&#45;70cb&#45;470c&#45;8e4f&#45;a92154280710</title>
<polygon fill="white" stroke="black" points="1173.5,-391.48 891.5,-391.48 891.5,-355.48 1173.5,-355.48 1173.5,-391.48"/>
<text text-anchor="middle" x="1032.5" y="-369.78" font-family="Helvetica,sans-Serif" font-size="14.00">▶ Ran sandbox for `pytrait/hooks.py`.</text>
</g>
<!-- 13dd2a6e&#45;7126&#45;4787&#45;bab5&#45;b7b7c1a77dc6&#45;&gt;89ebeb96&#45;70cb&#45;470c&#45;8e4f&#45;a92154280710 -->
<g id="edge11" class="edge">
<title>13dd2a6e&#45;7126&#45;4787&#45;bab5&#45;b7b7c1a77dc6&#45;&gt;89ebeb96&#45;70cb&#45;470c&#45;8e4f&#45;a92154280710</title>
<path fill="none" stroke="black" stroke-dasharray="5,2" d="M1032.5,-428.2C1032.5,-419.75 1032.5,-410.37 1032.5,-401.84"/>
<polygon fill="black" stroke="black" points="1036,-401.63 1032.5,-391.63 1029,-401.63 1036,-401.63"/>
</g>
<!-- 14eb70f9&#45;7704&#45;48e3&#45;8a29&#45;874184772669 -->
<g id="node7" class="node">
<title>14eb70f9&#45;7704&#45;48e3&#45;8a29&#45;874184772669</title>
<ellipse fill="white" stroke="black" cx="1625.5" cy="-455.35" rx="96.75" ry="26.74"/>
<text text-anchor="middle" x="1625.5" y="-459.15" font-family="Helvetica,sans-Serif" font-size="14.00">▶ Modify</text>
<text text-anchor="middle" x="1625.5" y="-444.15" font-family="Helvetica,sans-Serif" font-size="14.00">pytrait/__init__.py</text>
</g>
<!-- c019e604&#45;7899&#45;459e&#45;a7cf&#45;8889144cc941&#45;&gt;14eb70f9&#45;7704&#45;48e3&#45;8a29&#45;874184772669 -->
<g id="edge14" class="edge">
<title>c019e604&#45;7899&#45;459e&#45;a7cf&#45;8889144cc941&#45;&gt;14eb70f9&#45;7704&#45;48e3&#45;8a29&#45;874184772669</title>
<path fill="none" stroke="black" d="M1455.15,-455.35C1476.21,-455.35 1497.28,-455.35 1518.34,-455.35"/>
<polygon fill="black" stroke="black" points="1518.35,-458.85 1528.35,-455.35 1518.35,-451.85 1518.35,-458.85"/>
</g>
<!-- 1f3d842e&#45;a06a&#45;4f56&#45;9aba&#45;0d565f9a94f6 -->
<g id="node12" class="node">
<title>1f3d842e&#45;a06a&#45;4f56&#45;9aba&#45;0d565f9a94f6</title>
<polygon fill="white" stroke="black" points="1499.5,-391.48 1191.5,-391.48 1191.5,-355.48 1499.5,-355.48 1499.5,-391.48"/>
<text text-anchor="middle" x="1345.5" y="-369.78" font-family="Helvetica,sans-Serif" font-size="14.00">▶ Ran sandbox for `pytrait/examples.py`.</text>
</g>
<!-- c019e604&#45;7899&#45;459e&#45;a7cf&#45;8889144cc941&#45;&gt;1f3d842e&#45;a06a&#45;4f56&#45;9aba&#45;0d565f9a94f6 -->
<g id="edge13" class="edge">
<title>c019e604&#45;7899&#45;459e&#45;a7cf&#45;8889144cc941&#45;&gt;1f3d842e&#45;a06a&#45;4f56&#45;9aba&#45;0d565f9a94f6</title>
<path fill="none" stroke="black" stroke-dasharray="5,2" d="M1345.5,-428.2C1345.5,-419.75 1345.5,-410.37 1345.5,-401.84"/>
<polygon fill="black" stroke="black" points="1349,-401.63 1345.5,-391.63 1342,-401.63 1349,-401.63"/>
</g>
<!-- 14eb70f9&#45;7704&#45;48e3&#45;8a29&#45;874184772669&#45;&gt;end -->
<g id="edge17" class="edge">
<title>14eb70f9&#45;7704&#45;48e3&#45;8a29&#45;874184772669&#45;&gt;end</title>
<path fill="none" stroke="black" d="M1722.78,-455.35C1741.75,-455.35 1759.01,-455.35 1769.62,-455.35"/>
<polygon fill="black" stroke="black" points="1769.82,-458.85 1779.82,-455.35 1769.82,-451.85 1769.82,-458.85"/>
<text text-anchor="middle" x="1751.19" y="-462.15" font-family="Helvetica,sans-Serif" font-size="14.00">Finish</text>
</g>
<!-- b8e19222&#45;f66c&#45;47d7&#45;a068&#45;744254d1ce67 -->
<g id="node13" class="node">
<title>b8e19222&#45;f66c&#45;47d7&#45;a068&#45;744254d1ce67</title>
<polygon fill="white" stroke="black" points="1807.5,-391.48 1517.5,-391.48 1517.5,-355.48 1807.5,-355.48 1807.5,-391.48"/>
<text text-anchor="middle" x="1662.5" y="-369.78" font-family="Helvetica,sans-Serif" font-size="14.00">▶ Ran sandbox for `pytrait/__init__.py`.</text>
</g>
<!-- 14eb70f9&#45;7704&#45;48e3&#45;8a29&#45;874184772669&#45;&gt;b8e19222&#45;f66c&#45;47d7&#45;a068&#45;744254d1ce67 -->
<g id="edge15" class="edge">
<title>14eb70f9&#45;7704&#45;48e3&#45;8a29&#45;874184772669&#45;&gt;b8e19222&#45;f66c&#45;47d7&#45;a068&#45;744254d1ce67</title>
<path fill="none" stroke="black" stroke-dasharray="5,2" d="M1637.41,-428.64C1641.51,-419.8 1646.1,-409.89 1650.22,-400.98"/>
<polygon fill="black" stroke="black" points="1653.44,-402.36 1654.47,-391.82 1647.09,-399.42 1653.44,-402.36"/>
</g>
<!-- 54988a34&#45;7ffa&#45;40bd&#45;9a7a&#45;15293322a2f2 -->
<g id="node14" class="node">
<title>54988a34&#45;7ffa&#45;40bd&#45;9a7a&#45;15293322a2f2</title>
<ellipse fill="#0ee832" stroke="black" cx="438.5" cy="-277.61" rx="88.28" ry="26.74"/>
<text text-anchor="middle" x="438.5" y="-281.41" font-family="Helvetica,sans-Serif" font-size="14.00">✓ Modify</text>
<text text-anchor="middle" x="438.5" y="-266.41" font-family="Helvetica,sans-Serif" font-size="14.00">pytrait/traits.py</text>
</g>
<!-- 9622d26d&#45;c15f&#45;4abb&#45;ab05&#45;e807a3e9453b&#45;&gt;54988a34&#45;7ffa&#45;40bd&#45;9a7a&#45;15293322a2f2 -->
<g id="edge4" class="edge">
<title>9622d26d&#45;c15f&#45;4abb&#45;ab05&#45;e807a3e9453b&#45;&gt;54988a34&#45;7ffa&#45;40bd&#45;9a7a&#45;15293322a2f2</title>
<path fill="none" stroke="black" d="M438.5,-355.26C438.5,-343.96 438.5,-328.75 438.5,-314.86"/>
<polygon fill="black" stroke="black" points="442,-314.58 438.5,-304.58 435,-314.58 442,-314.58"/>
<text text-anchor="middle" x="536" y="-326.28" font-family="Helvetica,sans-Serif" font-size="14.00">Additional changes required</text>
</g>
<!-- 001108c2&#45;6cc1&#45;4864&#45;81e1&#45;40197e7e2bbe -->
<g id="node15" class="node">
<title>001108c2&#45;6cc1&#45;4864&#45;81e1&#45;40197e7e2bbe</title>
<polygon fill="#ee0000" stroke="black" points="429.5,-213.74 151.5,-213.74 151.5,-177.74 429.5,-177.74 429.5,-213.74"/>
<text text-anchor="middle" x="290.5" y="-192.04" font-family="Helvetica,sans-Serif" font-size="14.00">✗ Ran sandbox for `pytrait/traits.py`.</text>
</g>
<!-- 54988a34&#45;7ffa&#45;40bd&#45;9a7a&#45;15293322a2f2&#45;&gt;001108c2&#45;6cc1&#45;4864&#45;81e1&#45;40197e7e2bbe -->
<g id="edge5" class="edge">
<title>54988a34&#45;7ffa&#45;40bd&#45;9a7a&#45;15293322a2f2&#45;&gt;001108c2&#45;6cc1&#45;4864&#45;81e1&#45;40197e7e2bbe</title>
<path fill="none" stroke="black" stroke-dasharray="5,2" d="M396.49,-253.94C376.03,-242.9 351.54,-229.68 331.26,-218.73"/>
<polygon fill="black" stroke="black" points="332.72,-215.55 322.26,-213.88 329.4,-221.71 332.72,-215.55"/>
</g>
<!-- 5f5da67e&#45;dae4&#45;4368&#45;a88d&#45;53a01477f745 -->
<g id="node16" class="node">
<title>5f5da67e&#45;dae4&#45;4368&#45;a88d&#45;53a01477f745</title>
<polygon fill="#ee0000" stroke="black" points="725.5,-213.74 447.5,-213.74 447.5,-177.74 725.5,-177.74 725.5,-213.74"/>
<text text-anchor="middle" x="586.5" y="-192.04" font-family="Helvetica,sans-Serif" font-size="14.00">✗ Ran sandbox for `pytrait/traits.py`.</text>
</g>
<!-- 54988a34&#45;7ffa&#45;40bd&#45;9a7a&#45;15293322a2f2&#45;&gt;5f5da67e&#45;dae4&#45;4368&#45;a88d&#45;53a01477f745 -->
<g id="edge8" class="edge">
<title>54988a34&#45;7ffa&#45;40bd&#45;9a7a&#45;15293322a2f2&#45;&gt;5f5da67e&#45;dae4&#45;4368&#45;a88d&#45;53a01477f745</title>
<path fill="none" stroke="black" stroke-dasharray="5,2" d="M480.51,-253.94C500.97,-242.9 525.46,-229.68 545.74,-218.73"/>
<polygon fill="black" stroke="black" points="547.6,-221.71 554.74,-213.88 544.28,-215.55 547.6,-221.71"/>
</g>
<!-- 4a624526&#45;f0f9&#45;4bef&#45;932c&#45;6860d165fe6e -->
<g id="node17" class="node">
<title>4a624526&#45;f0f9&#45;4bef&#45;932c&#45;6860d165fe6e</title>
<ellipse fill="#ee0000" stroke="black" cx="290.5" cy="-99.87" rx="88.28" ry="26.74"/>
<text text-anchor="middle" x="290.5" y="-103.67" font-family="Helvetica,sans-Serif" font-size="14.00">✗ Modify</text>
<text text-anchor="middle" x="290.5" y="-88.67" font-family="Helvetica,sans-Serif" font-size="14.00">pytrait/traits.py</text>
</g>
<!-- 001108c2&#45;6cc1&#45;4864&#45;81e1&#45;40197e7e2bbe&#45;&gt;4a624526&#45;f0f9&#45;4bef&#45;932c&#45;6860d165fe6e -->
<g id="edge6" class="edge">
<title>001108c2&#45;6cc1&#45;4864&#45;81e1&#45;40197e7e2bbe&#45;&gt;4a624526&#45;f0f9&#45;4bef&#45;932c&#45;6860d165fe6e</title>
<path fill="none" stroke="black" d="M290.5,-177.52C290.5,-166.22 290.5,-151.01 290.5,-137.12"/>
<polygon fill="black" stroke="black" points="294,-136.84 290.5,-126.84 287,-136.84 294,-136.84"/>
<text text-anchor="middle" x="388" y="-148.54" font-family="Helvetica,sans-Serif" font-size="14.00">Additional changes required</text>
</g>
<!-- 64279b4e&#45;016c&#45;4f50&#45;a343&#45;30e65b10a958 -->
<g id="node18" class="node">
<title>64279b4e&#45;016c&#45;4f50&#45;a343&#45;30e65b10a958</title>
<polygon fill="#ee0000" stroke="black" points="429.5,-36 151.5,-36 151.5,0 429.5,0 429.5,-36"/>
<text text-anchor="middle" x="290.5" y="-14.3" font-family="Helvetica,sans-Serif" font-size="14.00">✗ Ran sandbox for `pytrait/traits.py`.</text>
</g>
<!-- 4a624526&#45;f0f9&#45;4bef&#45;932c&#45;6860d165fe6e&#45;&gt;64279b4e&#45;016c&#45;4f50&#45;a343&#45;30e65b10a958 -->
<g id="edge7" class="edge">
<title>4a624526&#45;f0f9&#45;4bef&#45;932c&#45;6860d165fe6e&#45;&gt;64279b4e&#45;016c&#45;4f50&#45;a343&#45;30e65b10a958</title>
<path fill="none" stroke="black" stroke-dasharray="5,2" d="M290.5,-72.72C290.5,-64.27 290.5,-54.89 290.5,-46.36"/>
<polygon fill="black" stroke="black" points="294,-46.15 290.5,-36.15 287,-46.15 294,-46.15"/>
</g>
</g>
</svg>
